<?xml version="1.0" encoding="UTF-8"?>
<svg version="1.1" xmlns="http://www.w3.org/2000/svg" width="512" height="512">
<path d="M0 0 C1.4239212 -0.00668677 1.4239212 -0.00668677 2.87660849 -0.01350862 C4.43640655 -0.01323207 4.43640655 -0.01323207 6.02771568 -0.01294994 C7.68834811 -0.01846498 7.68834811 -0.01846498 9.38252866 -0.02409142 C13.10568282 -0.03513639 16.82880907 -0.0389735 20.55197716 -0.04278088 C23.21611256 -0.04904491 25.88024497 -0.05567886 28.54437828 -0.0626936 C36.54875695 -0.08244437 44.55313686 -0.09252255 52.5575338 -0.10142139 C56.32883891 -0.10580665 60.10014261 -0.11117285 63.87144661 -0.11641026 C76.41143121 -0.13342131 88.95141494 -0.14791484 101.4914093 -0.155159 C104.74467152 -0.15706883 107.99793372 -0.15898917 111.25119591 -0.16094494 C112.46403907 -0.16167055 112.46403907 -0.16167055 113.70138411 -0.16241082 C126.79560054 -0.17070873 139.88972554 -0.19604215 152.98390205 -0.22852562 C166.4334864 -0.26161819 179.88302432 -0.27960975 193.33264959 -0.28280324 C200.8816529 -0.28496632 208.43052289 -0.29368538 215.97948647 -0.31926441 C222.40938176 -0.34100152 228.83911136 -0.34900711 235.26903923 -0.33929763 C238.54733538 -0.3347615 241.82521949 -0.33879341 245.1034832 -0.35605907 C248.66461467 -0.37376282 252.22488416 -0.36667808 255.78601646 -0.35352612 C256.81249751 -0.36449536 257.83897855 -0.37546461 258.89656508 -0.38676625 C268.4770225 -0.30156929 276.51099413 2.41715276 283.5300045 9.09515858 C289.37062473 15.87027804 291.57292814 23.3082754 291.287817 32.13422108 C290.87096859 35.77587916 290.33383203 39.39667286 289.787817 43.02093983 C289.64473106 43.99462513 289.50164513 44.96831043 289.35422325 45.97150135 C289.00269638 48.35968704 288.64712209 50.74719541 288.287817 53.13422108 C289.16763237 53.12977985 290.04744774 53.12533863 290.95392418 53.12076283 C299.28013479 53.08054607 307.60631238 53.05016583 315.93259811 53.03059673 C320.21234243 53.02019759 324.49200591 53.00610979 328.77170372 52.98334217 C332.90845716 52.96147487 337.04513326 52.94962341 341.18194008 52.94446659 C342.75344242 52.9407956 344.32494093 52.93362768 345.89640999 52.92276096 C363.10619074 52.80858076 377.32911508 54.87363104 390.287817 67.13422108 C400.23203939 77.69753902 403.98687519 91.6646103 408.39328575 105.13812733 C408.96390037 106.86977234 409.53489643 108.60129169 410.10625267 110.33269215 C411.29604076 113.94288047 412.48140676 117.55448131 413.66354942 121.16718006 C415.171628 125.7748414 416.69050245 130.37885755 418.21267796 134.98187828 C419.39143729 138.55030517 420.56456108 142.12056539 421.73602295 145.69139385 C422.29366748 147.38904568 422.85298921 149.08614761 423.4140892 150.78266048 C427.64698783 163.59679696 430.67963764 175.04149629 430.65109825 188.65765858 C430.64886757 189.86376789 430.64663689 191.0698772 430.64433861 192.31253529 C430.45661148 206.86362077 428.6451348 221.19517271 426.75418663 235.60547352 C426.3774583 238.51499696 426.02037593 241.42679987 425.66342258 244.3388052 C425.31262028 247.18807424 424.95275686 250.03613941 424.58990479 252.88389683 C424.33900923 254.85856102 424.09313577 256.8338613 423.84743309 258.80917835 C422.01424786 272.68039343 418.94790347 284.47458558 407.55808067 293.51874256 C398.74223243 299.79194052 389.51956255 299.6363605 379.162817 299.38422108 C377.71492523 299.36411147 376.26700628 299.34586863 374.819067 299.32953358 C371.30807573 299.2859226 367.7981258 299.21714678 364.287817 299.13422108 C364.17317101 299.72082508 364.05852501 300.30742908 363.94040489 300.91180897 C360.96848297 315.29107821 352.16753334 326.54077184 339.975317 334.59906483 C326.76658025 342.14417172 312.28089061 344.65920935 297.475317 340.63422108 C285.78792801 336.51608401 277.86639806 328.90011539 272.037817 318.19672108 C269.06826894 311.89880455 268.287817 306.07024072 268.287817 299.13422108 C207.567817 299.13422108 146.847817 299.13422108 84.287817 299.13422108 C83.627817 302.10422108 82.967817 305.07422108 82.287817 308.13422108 C76.44225123 322.52772894 65.06257467 332.94962862 50.975317 339.00922108 C40.40849117 343.2698104 27.36840173 343.99605225 16.52609825 340.11468983 C4.35993328 334.78535753 -3.63754001 327.49211978 -9.024683 315.25922108 C-10.39349947 311.57321026 -11.01930017 308.23088081 -11.31765175 304.31390858 C-11.3952372 303.33921619 -11.47282265 302.36452381 -11.55275917 301.3602953 C-11.60536903 300.6256908 -11.6579789 299.89108631 -11.712183 299.13422108 C-12.51325478 299.15516834 -13.31432655 299.17611561 -14.13967323 299.19769764 C-17.80954609 299.28143508 -21.47921716 299.33306476 -25.149683 299.38422108 C-26.40974159 299.4177367 -27.66980019 299.45125233 -28.96804237 299.48578358 C-39.10616698 299.59166477 -46.55875442 297.84218022 -54.1418705 290.91156483 C-61.60778016 282.46134369 -62.13553654 273.95856942 -61.712183 263.13422108 C-61.31470098 258.46542195 -60.78218991 253.82822313 -60.16799355 249.18353748 C-59.89652266 247.1100829 -59.64661985 245.03471264 -59.39772987 242.95843983 C-59.2264859 241.62103546 -59.05400574 240.28378866 -58.88015175 238.94672108 C-58.72828407 237.75691639 -58.5764164 236.5671117 -58.41994667 235.34125233 C-57.50761744 231.20729003 -55.89243216 228.4018961 -53.024683 225.32172108 C-49.62966872 223.57833537 -46.40699516 223.5906503 -42.712183 224.13422108 C-39.73162898 225.43011413 -38.21629302 226.39005867 -36.399683 229.07172108 C-35.712183 231.13422108 -35.712183 231.13422108 -35.712183 235.13422108 C56.357817 235.13422108 148.427817 235.13422108 243.287817 235.13422108 C244.772817 221.76922108 244.772817 221.76922108 246.287817 208.13422108 C247.03140427 201.89524459 247.78312353 195.65807323 248.55612755 189.4227953 C248.76361624 187.73887443 248.9709471 186.05493412 249.17813683 184.37097645 C249.61598499 180.81418282 250.0547075 177.25749867 250.49412155 173.70089817 C251.18988157 168.06773242 251.88231362 162.43416039 252.57414818 156.80051136 C254.53878649 140.80528143 256.50544597 124.81030442 258.48044395 108.81634998 C259.57770724 99.93025536 260.67109459 91.04369288 261.76013595 82.15658677 C262.33394378 77.47543109 262.90974609 72.79454028 263.49039841 68.11422825 C264.03433557 63.72981961 264.57321291 59.3448185 265.10826683 54.95931721 C265.30470397 53.35673234 265.50298853 51.75437261 265.70330811 50.15226841 C268.33040403 37.14752165 268.33040403 37.14752165 265.91641903 24.93266487 C261.78734612 22.107625 257.75441658 22.58638369 252.86267662 22.63301563 C251.78951805 22.62748124 250.71635947 22.62194684 249.61068094 22.61624473 C246.00233819 22.60259433 242.39468187 22.61763198 238.78635216 22.63251209 C236.2043942 22.62873049 233.62243827 22.62323176 231.04048729 22.61613941 C224.74769213 22.60219515 218.45509744 22.60977221 212.16231181 22.62481499 C204.83438662 22.64166593 197.50651151 22.63846589 190.17857294 22.63472091 C177.10231689 22.62883995 164.02615707 22.64302201 150.94992638 22.66766834 C138.26206414 22.69157999 125.57433054 22.69867674 112.88644981 22.68817616 C99.07272441 22.67676431 85.25905853 22.67484094 71.44533384 22.68927425 C69.97195395 22.69080009 68.49857406 22.69232045 67.02519417 22.69383526 C65.937789 22.69497198 65.937789 22.69497198 64.82841606 22.69613167 C59.72108971 22.7008732 54.61378995 22.69902391 49.506464 22.69476986 C42.62986105 22.68932575 35.75343944 22.70009538 28.8768692 22.72172451 C26.35090232 22.72729515 23.82491831 22.72775517 21.2989502 22.72277164 C17.85474294 22.71682814 14.41108261 22.72930697 10.96692467 22.74654102 C9.96381079 22.74053098 8.96069692 22.73452093 7.92718565 22.72832876 C2.63395346 22.77659363 -1.16140507 23.11668035 -5.712183 26.13422108 C-10.19514261 31.32864015 -10.65322613 36.39082142 -11.3137455 42.94476795 C-11.85649875 46.9547147 -12.46464839 49.39010646 -15.5637455 52.12640858 C-19.61782923 54.71176719 -22.0716212 55.15828143 -26.712183 54.13422108 C-32.212183 51.13422108 -32.212183 51.13422108 -33.712183 48.13422108 C-34.70270597 35.71458684 -33.44375661 23.28361291 -25.59890175 13.25140858 C-18.7475437 5.56313515 -10.56972698 0.02307331 0 0 Z M285.287817 75.13422108 C282.95294723 93.78016098 280.62303314 112.42671387 278.29890347 131.07399559 C277.21948582 139.73360415 276.13849042 148.39301013 275.05368614 157.05194569 C274.10739883 164.60526857 273.16416806 172.15896601 272.22449869 179.71311516 C271.72755079 183.70730905 271.22914713 187.70130829 270.72707367 191.69486141 C270.25302253 195.46591352 269.78310854 199.23745975 269.31615067 203.00939655 C269.06514257 205.02863204 268.80994165 207.04734499 268.55454063 209.06602955 C267.48145038 217.77739684 266.87378707 226.34467001 266.287817 235.13422108 C311.497817 235.13422108 356.707817 235.13422108 403.287817 235.13422108 C404.69531302 227.39299295 405.95163415 219.79676374 406.912817 212.00922108 C407.0468795 211.00890858 407.180942 210.00859608 407.319067 208.97797108 C408.09463955 202.69425064 408.36558095 196.53427616 408.3244381 190.21283436 C408.32179451 189.4324329 408.31915092 188.65203144 408.31642723 187.84798145 C408.30959157 185.94338305 408.29908531 184.03879841 408.287817 182.13422108 C407.35122749 182.12835484 406.41463799 182.12248859 405.44966698 182.11644459 C396.60727817 182.05913995 387.76513346 181.98633804 378.92299366 181.89850616 C374.37754604 181.85384896 369.83218708 181.81458266 365.2865963 181.78778553 C360.89680948 181.76170606 356.50736472 181.72127102 352.11779022 181.67103481 C350.44617606 181.65439744 348.77450278 181.64286371 347.10281754 181.63660717 C344.75453584 181.62693175 342.40712308 181.59883294 340.05905724 181.56659412 C339.37356804 181.56802921 338.68807884 181.5694643 337.98181725 181.57094288 C331.83917129 181.45228999 327.40377826 179.76928205 322.537817 176.00922108 C313.80827079 164.85480091 318.33829972 149.59855303 319.90891075 136.56781483 C320.01316368 135.71558338 320.11741661 134.86335194 320.22482872 133.9852953 C320.43423696 132.24501804 320.6356819 130.50376485 320.82932091 128.76166248 C323.0198323 109.09860138 323.0198323 109.09860138 328.287817 103.13422108 C332.94852295 99.475491 337.37697813 97.05845453 343.39206505 96.92889881 C344.21268929 96.90895359 345.03331352 96.88900837 345.87880516 96.86845875 C346.76014626 96.85174625 347.64148735 96.83503376 348.54953575 96.81781483 C349.90822525 96.78664318 349.90822525 96.78664318 351.29436302 96.7548418 C354.18793717 96.6894555 357.08160207 96.63051203 359.975317 96.57172108 C361.93691493 96.52852548 363.89850368 96.48491085 365.86008263 96.4408617 C370.6692344 96.33378525 375.47847746 96.23248693 380.287817 96.13422108 C379.25781173 89.26263956 376.78710937 85.10899424 371.46359825 80.58343983 C361.84595064 73.97008782 350.17974444 74.85930428 338.9987545 74.93890858 C337.44363145 74.94264634 335.88850601 74.9454897 334.33337975 74.94748402 C330.27279533 74.95506044 326.21235773 74.97465623 322.15183067 74.99689198 C317.99535672 75.01748069 313.83885867 75.02651338 309.68234825 75.03656483 C301.55077103 75.05790879 293.41931237 75.09197083 285.287817 75.13422108 Z M345.287817 118.13422108 C343.5133867 122.57029683 342.78961688 125.77593691 342.2175045 130.44672108 C342.13155022 131.13806141 342.04559593 131.82940174 341.95703697 132.54169178 C341.77747081 133.99694767 341.60116723 135.45260946 341.42795372 136.90863514 C341.16355158 139.12805495 340.88866231 141.34598264 340.61203575 143.56390858 C339.93211283 149.11610326 339.287817 154.52910118 339.287817 160.13422108 C360.077817 160.13422108 380.867817 160.13422108 402.287817 160.13422108 C400.349067 154.13234608 398.410317 148.13047108 396.412817 141.94672108 C395.50040245 139.11751087 395.50040245 139.11751087 394.56955528 136.23114491 C394.08255018 134.72613643 393.59541682 133.22116945 393.1081295 131.71625233 C392.73482506 130.55627735 392.73482506 130.55627735 392.35397911 129.37286854 C391.98889244 128.24697315 391.98889244 128.24697315 391.61643028 127.09833241 C391.40769279 126.45213444 391.19895531 125.80593647 390.98389244 125.14015675 C390.16357262 122.77617621 389.21713478 120.45751552 388.287817 118.13422108 C374.097817 118.13422108 359.907817 118.13422108 345.287817 118.13422108 Z M-37.712183 257.13422108 C-39.83606119 265.95734558 -39.83606119 265.95734558 -38.712183 274.13422108 C-33.90335935 278.91547282 -27.18462361 277.84724147 -20.837183 277.94672108 C-19.57003456 278.01697498 -18.30288612 278.08722889 -16.99733925 278.1596117 C-13.31037207 278.21582729 -10.26494727 278.1342204 -6.712183 277.13422108 C-3.79592962 274.16545331 -2.35107077 270.91750014 -0.712183 267.13422108 C1.334692 264.47797108 1.334692 264.47797108 3.037817 262.63422108 C3.89633263 261.69062733 3.89633263 261.69062733 4.772192 260.72797108 C5.92702186 259.5136139 7.10284963 258.31918845 8.287817 257.13422108 C-6.892183 257.13422108 -22.072183 257.13422108 -37.712183 257.13422108 Z M72.287817 257.13422108 C74.267817 259.77422108 76.247817 262.41422108 78.287817 265.13422108 C79.69974953 267.80120475 81.02707855 270.40644151 82.287817 273.13422108 C82.947817 274.45422108 83.607817 275.77422108 84.287817 277.13422108 C135.107817 277.13422108 185.927817 277.13422108 238.287817 277.13422108 C240.50701565 265.84661669 240.50701565 265.84661669 240.287817 257.13422108 C184.847817 257.13422108 129.407817 257.13422108 72.287817 257.13422108 Z M263.287817 257.13422108 C261.57464018 267.0867685 261.57464018 267.0867685 261.287817 277.13422108 C265.46270461 277.81289739 269.13983912 278.0681683 273.287817 277.13422108 C275.6637896 274.65085988 277.02918819 272.15071169 278.61984825 269.11078358 C280.78442771 265.24799776 283.56575115 262.58737529 286.78391075 259.59515858 C287.52834435 258.87199451 287.52834435 258.87199451 288.287817 258.13422108 C288.287817 257.80422108 288.287817 257.47422108 288.287817 257.13422108 C280.037817 257.13422108 271.787817 257.13422108 263.287817 257.13422108 Z M352.287817 257.13422108 C354.267817 259.77422108 356.247817 262.41422108 358.287817 265.13422108 C359.69974953 267.80120475 361.02707855 270.40644151 362.287817 273.13422108 C362.95226586 274.46866101 363.61866548 275.80213307 364.287817 277.13422108 C368.49591584 277.25078891 372.70359696 277.32159719 376.912817 277.38422108 C378.10262169 277.4177367 379.29242638 277.45125233 380.51828575 277.48578358 C389.24588101 277.6602688 389.24588101 277.6602688 396.287817 273.13422108 C397.7934475 271.35445277 397.7934475 271.35445277 398.662817 269.38422108 C399.13848106 268.46383045 399.13848106 268.46383045 399.6237545 267.52484608 C400.64467549 264.26305424 400.64467549 264.26305424 400.287817 257.13422108 C384.447817 257.13422108 368.607817 257.13422108 352.287817 257.13422108 Z M24.287817 273.13422108 C23.64199669 273.55703358 22.99617638 273.97984608 22.33078575 274.41547108 C15.83166405 279.28627252 11.47501006 287.14045451 10.287817 295.13422108 C9.76760897 302.02697755 11.37566988 307.12941845 15.037817 312.88422108 C19.88667087 317.73307495 25.10571084 319.85508896 31.850317 320.44672108 C41.27351905 320.23692808 48.47045455 315.98578569 55.11984825 309.57953358 C61.13449719 302.79544306 63.74731069 295.8650243 63.62766075 286.86468983 C62.93604236 281.30789375 60.56944642 276.31100538 56.50266075 272.43109608 C46.67735027 265.17163101 34.04044939 266.55075648 24.287817 273.13422108 Z M297.287817 279.13422108 C292.05286592 285.95636477 289.20600559 293.41315679 290.287817 302.13422108 C291.96208034 308.73350724 294.83459053 313.82246165 300.787817 317.38422108 C307.83840519 320.90951517 314.15632513 321.03254599 321.662817 318.69672108 C330.62419214 315.16195644 337.09416654 308.68338159 341.44797325 300.17718983 C343.8182247 294.41141537 344.37062954 287.98958546 342.67453575 281.95062733 C340.23239275 276.4315993 336.16990798 272.59278655 331.287817 269.13422108 C318.54687043 264.88723889 306.08987036 269.56872431 297.287817 279.13422108 Z " fill="#000000" transform="translate(81.71218299865723,84.86577892303467)"/>
<path d="M0 0 C0.92874939 -0.00671722 1.85749878 -0.01343445 2.81439209 -0.02035522 C5.8908012 -0.03938436 8.9669927 -0.04326193 12.04345703 -0.04541016 C14.17953583 -0.05183477 16.31561374 -0.05856288 18.45169067 -0.06558228 C22.93233277 -0.07756742 27.41289769 -0.08126184 31.89355469 -0.08007812 C37.63607777 -0.07987489 43.37810618 -0.10717621 49.12051201 -0.14162254 C53.53343988 -0.16385642 57.94624807 -0.16791674 62.35922623 -0.16685867 C64.47633697 -0.16921996 66.59345076 -0.17807305 68.71050644 -0.19352341 C71.67194023 -0.21311158 74.63229903 -0.20737329 77.59375 -0.1953125 C78.46873138 -0.20655151 79.34371277 -0.21779053 80.24520874 -0.22937012 C84.27237127 -0.18767702 86.40911748 -0.02380034 89.91970825 2.10995483 C92.63019278 5.0554956 93.31501997 7.35136351 93.92626953 11.29052734 C93.04093466 15.80573521 91.48049602 18.38252385 87.92626953 21.29052734 C84.02318627 22.5915551 80.30487398 22.45450409 76.2355957 22.4675293 C75.34746689 22.47410049 74.45933807 22.48067169 73.54429626 22.48744202 C70.60260942 22.507167 67.66097359 22.51883534 64.71923828 22.52880859 C63.71448267 22.53288412 62.70972706 22.53695965 61.67452431 22.54115868 C56.35731843 22.56201518 51.04013833 22.57631919 45.72290039 22.58569336 C40.23160187 22.59676186 34.7407081 22.63116822 29.24955273 22.67086506 C25.0261815 22.69700988 20.80290709 22.70538327 16.57946205 22.70897484 C14.5552732 22.71384566 12.5310888 22.7254737 10.50697899 22.74401283 C7.67270176 22.76836049 4.83947675 22.76744729 2.00512695 22.76049805 C0.75415222 22.77971313 0.75415222 22.77971313 -0.52209473 22.79931641 C-5.84215959 22.75183458 -8.83621765 21.79680328 -13.07373047 18.29052734 C-15.66017511 14.88112304 -15.43876162 11.45188245 -15.07373047 7.29052734 C-11.71568606 0.09471789 -7.30119524 -0.0075283 0 0 Z " fill="#000000" transform="translate(27.07373046875,159.70947265625)"/>
<path d="M0 0 C0.78083954 -0.0065712 1.56167908 -0.0131424 2.36618042 -0.01991272 C4.95074562 -0.03962638 7.53525278 -0.05130368 10.11987305 -0.0612793 C11.44496919 -0.06739259 11.44496919 -0.06739259 12.79683495 -0.07362938 C17.47213888 -0.09448138 22.14741354 -0.10878714 26.82275391 -0.11816406 C31.64820202 -0.12922974 36.47318916 -0.16363383 41.29847431 -0.20333576 C45.01229197 -0.22949606 48.72599966 -0.23785534 52.43990135 -0.24144554 C54.21847842 -0.24631263 55.99705054 -0.25793013 57.77553749 -0.27648354 C60.26739556 -0.30086415 62.75805886 -0.29991236 65.25 -0.29296875 C65.98112503 -0.30577881 66.71225006 -0.31858887 67.4655304 -0.33178711 C72.54114295 -0.28037028 75.40187942 1.00010232 79.3190918 4.17700195 C81.32452145 7.0459594 81.58549445 9.16401414 81.2565918 12.61450195 C81.20374023 13.35571289 81.15088867 14.09692383 81.09643555 14.8605957 C79.92550587 18.34984845 78.17546465 19.87364258 75.3190918 22.17700195 C72.36028682 22.66683243 69.98050805 22.85299659 67.02807617 22.80810547 C66.20632401 22.81526077 65.38457184 22.82241608 64.53791809 22.82978821 C61.82898907 22.84665928 59.12171876 22.82728286 56.4128418 22.8059082 C54.52624373 22.80673705 52.63964573 22.80919704 50.75305176 22.81321716 C46.80202458 22.81607407 42.85156462 22.8013845 38.90063477 22.77392578 C33.83962106 22.73984317 28.77962152 22.74586221 23.71855927 22.76458836 C19.82370573 22.77516385 15.92908763 22.76621553 12.03425598 22.75120354 C10.16836751 22.7460253 8.30245441 22.74649918 6.43656921 22.75274849 C3.82721204 22.75820737 1.21929988 22.73780501 -1.38989258 22.71044922 C-2.15887375 22.7169751 -2.92785492 22.72350098 -3.72013855 22.73022461 C-8.6522225 22.64243272 -11.22607873 21.71184826 -14.6809082 18.17700195 C-16.53946102 14.45989632 -16.2599926 10.22422914 -15.6809082 6.17700195 C-11.21326516 0.2603936 -6.96602455 0.02540834 0 0 Z " fill="#000000" transform="translate(15.680908203125,265.822998046875)"/>
<path d="M0 0 C1.65212746 -0.01902626 1.65212746 -0.01902626 3.33763123 -0.03843689 C4.51793411 -0.03550125 5.698237 -0.03256561 6.91430664 -0.02954102 C8.74681725 -0.03740379 8.74681725 -0.03740379 10.61634827 -0.04542542 C13.19767497 -0.05184352 15.77903093 -0.0505114 18.36035156 -0.04199219 C22.30660167 -0.03348577 26.25140274 -0.06224414 30.19750977 -0.09399414 C32.70727496 -0.09560635 35.21704271 -0.09502825 37.72680664 -0.09204102 C38.9050853 -0.10327499 40.08336395 -0.11450897 41.29734802 -0.12608337 C47.58226098 -0.07270655 51.66809563 0.05344277 56.38696289 4.40405273 C58.24422905 8.11858505 57.97197378 12.35984699 57.38696289 16.40405273 C55.19673372 19.22829562 53.55679082 20.81913877 50.38696289 22.40405273 C48.63199488 22.51508804 46.87288889 22.56325153 45.11450195 22.58105469 C44.01285706 22.59388992 42.91121216 22.60672516 41.77618408 22.61994934 C39.98250397 22.63102974 39.98250397 22.63102974 38.15258789 22.64233398 C36.92666931 22.65040573 35.70075073 22.65847748 34.43768311 22.66679382 C31.83843403 22.68064511 29.23916669 22.69136257 26.63989258 22.69921875 C22.66728217 22.7124333 18.69528507 22.76030027 14.72290039 22.80444336 C12.19946902 22.81457082 9.67603056 22.82308676 7.15258789 22.82983398 C5.96489807 22.84734207 4.77720825 22.86485016 3.55352783 22.88288879 C-2.77274495 22.86627863 -6.85934957 22.77934491 -11.61303711 18.40405273 C-13.14515427 15.83285266 -13.53518663 13.38461399 -13.61303711 10.40405273 C-12.50693089 6.43508337 -11.68485751 4.19434784 -8.34275818 1.73008728 C-5.30334445 0.2536113 -3.36138771 0.01880788 0 0 Z " fill="#000000" transform="translate(45.613037109375,212.595947265625)"/>
</svg>
