<?xml version="1.0" encoding="UTF-8"?>
<svg version="1.1" xmlns="http://www.w3.org/2000/svg" width="512" height="512">
<path d="M0 0 C14.29419048 6.07302932 28.10046451 13.48036337 40.46264648 22.90161133 C41.78329102 23.88967773 41.78329102 23.88967773 43.13061523 24.89770508 C58.38747328 36.81923817 73.1659354 51.75983507 82.46264648 68.90161133 C82.46264648 69.56161133 82.46264648 70.22161133 82.46264648 70.90161133 C83.12264648 70.90161133 83.78264648 70.90161133 84.46264648 70.90161133 C84.70112305 70.21196289 84.93959961 69.52231445 85.18530273 68.81176758 C86.70486214 65.34977443 88.6994315 62.39040159 90.90014648 59.33911133 C91.34044189 58.72704834 91.7807373 58.11498535 92.234375 57.484375 C96.86140077 51.17657458 102.03453325 45.52139523 107.46264648 39.90161133 C108.31342773 38.98766602 109.16420898 38.0737207 110.04077148 37.13208008 C126.21003406 20.21244753 146.24464596 9.25013631 167.46264648 -0.09838867 C168.73881836 -0.67459961 168.73881836 -0.67459961 170.04077148 -1.26245117 C177.02471124 -4.03016063 185.85920859 -4.78152065 192.96264648 -2.18432617 C203.4581427 3.97780229 206.49578547 13.91394178 209.42358398 25.0612793 C209.64272461 25.91608887 209.86186523 26.77089844 210.08764648 27.65161133 C210.29389648 28.44841309 210.50014648 29.24521484 210.71264648 30.06616211 C213.92623941 43.12660023 214.87258299 56.0142264 214.83764648 69.40161133 C214.83683075 70.5844873 214.83683075 70.5844873 214.83599854 71.79125977 C214.79472567 84.85593672 213.7775291 97.21615248 210.46264648 109.90161133 C210.1491626 111.15119629 210.1491626 111.15119629 209.8293457 112.42602539 C202.17001848 142.34043148 186.63080437 167.65117168 165.46264648 189.90161133 C164.84260742 190.58610352 164.22256836 191.2705957 163.58374023 191.97583008 C156.03709374 200.02896292 146.62896927 206.79072947 137.46264648 212.90161133 C138.3107917 212.90307789 139.15893692 212.90454445 140.03278351 212.90605545 C160.68171678 212.94312687 181.33048597 213.00214613 201.97928619 213.08551407 C211.96495326 213.12530263 221.95054154 213.15769607 231.9362793 213.17260742 C240.64109919 213.18562487 249.34574572 213.21259195 258.05046797 213.25622439 C262.6584574 213.27883708 267.266233 213.29452212 271.87428284 213.29349518 C276.21476868 213.29274845 280.55478189 213.31070413 284.89514542 213.34277916 C286.48496977 213.35127243 288.07484718 213.35303196 289.6646843 213.34741402 C298.90375913 213.31912411 306.07850022 213.44254038 313.48608398 219.57739258 C313.93209961 220.11750977 314.37811523 220.65762695 314.83764648 221.21411133 C315.52987305 222.01268555 315.52987305 222.01268555 316.23608398 222.82739258 C319.89663104 229.01768076 319.75202077 235.5703738 319.73007202 242.54670715 C319.73460313 243.60735608 319.73913425 244.66800501 319.74380267 245.76079482 C319.75644576 249.3088361 319.75482633 252.85672386 319.75317383 256.40478516 C319.7591591 258.95113828 319.76596465 261.49748958 319.77352905 264.0438385 C319.78936131 270.23924815 319.79563742 276.43460173 319.79675381 282.63002972 C319.79770548 287.6679215 319.80182169 292.70580076 319.80815506 297.74368858 C319.82576013 312.03943865 319.83499504 326.33515874 319.83349411 340.63091973 C319.8334142 341.40095353 319.83333429 342.17098732 319.83325195 342.96435547 C319.83317019 343.73533369 319.83308843 344.50631192 319.83300419 345.30065312 C319.83219142 357.79329991 319.85132882 370.2858261 319.87952869 382.77843801 C319.90828196 395.61791739 319.92206765 408.457338 319.92034113 421.29685038 C319.91967809 428.50039465 319.92513264 435.70381246 319.94669724 442.90732765 C319.96685186 449.68305019 319.96621045 456.45846177 319.95166397 463.23421288 C319.94957363 465.71819829 319.95429011 468.20220037 319.96638489 470.68615723 C319.98185056 474.08293907 319.97251935 477.47880212 319.9571228 480.87556458 C319.96740993 481.85330788 319.97769706 482.83105118 319.98829591 483.83842307 C319.91437773 491.24243535 318.54421593 498.54677063 313.39233398 504.15551758 C312.71428711 504.58735352 312.03624023 505.01918945 311.33764648 505.46411133 C310.65444336 505.91915039 309.97124023 506.37418945 309.26733398 506.84301758 C305.54546603 509.02619121 302.58066288 509.05249587 298.34635925 509.05551147 C297.6049717 509.05989373 296.86358415 509.06427598 296.09973031 509.06879103 C293.60245442 509.08220144 291.10521382 509.08836288 288.60791016 509.09448242 C286.82264546 509.10238157 285.03738237 509.1106504 283.25212097 509.1192627 C277.37830128 509.14550249 271.50447439 509.16079135 265.63061523 509.17504883 C263.61056323 509.18040753 261.59051127 509.18578503 259.57045937 509.19118118 C251.16960741 509.21281194 242.7687574 509.2315499 234.36788464 509.24280357 C222.31749699 509.25905086 210.26743139 509.29224534 198.21716517 509.34920442 C189.75002539 509.38786621 181.28297188 509.40743175 172.81574613 509.41272414 C167.75562593 509.4163825 162.69584906 509.42845522 157.6358242 509.46082687 C152.87594379 509.49084167 148.11661563 509.49724297 143.35666084 509.48544312 C141.60911377 509.48522183 139.86154155 509.493572 138.11408234 509.51109695 C135.72868136 509.53371865 133.34529482 509.52552826 130.95988464 509.50961304 C130.2676605 509.52349512 129.57543636 509.53737721 128.86223572 509.55167997 C125.06766672 509.48926209 123.54294101 508.96677119 120.5565691 506.54329872 C118.08887783 503.43006575 117.46264648 501.86706025 117.46264648 497.90161133 C118.46264648 494.21411133 118.46264648 494.21411133 120.46264648 490.90161133 C125.4169287 488.26620569 129.12001342 487.52833587 134.79624939 487.54084778 C135.49883377 487.53827972 136.20141815 487.53571167 136.92529297 487.5330658 C139.26862992 487.52813085 141.61131245 487.54461913 143.95458984 487.56103516 C145.6675467 487.56195483 147.38050469 487.56155255 149.09346104 487.55993938 C153.6699004 487.55926366 158.2461032 487.57661823 162.82248688 487.59777069 C167.12088241 487.6148885 171.41922116 487.61566183 175.71765137 487.61779785 C188.27851426 487.63352355 200.83933338 487.67540717 213.40014648 487.71411133 C241.47077148 487.77598633 269.54139648 487.83786133 298.46264648 487.90161133 C298.46264648 404.41161133 298.46264648 320.92161133 298.46264648 234.90161133 C156.56264648 234.90161133 14.66264648 234.90161133 -131.53735352 234.90161133 C-131.53735352 318.39161133 -131.53735352 401.88161133 -131.53735352 487.90161133 C-75.57625071 487.78284015 -75.57625071 487.78284015 -19.61523438 487.63134766 C-8.7923584 487.61779785 -8.7923584 487.61779785 -3.72584534 487.61528015 C-0.1869289 487.61248498 3.35185255 487.60124167 6.89073181 487.58488464 C11.40681319 487.56428783 15.92269864 487.55814147 20.43882263 487.5623945 C22.09496592 487.56150533 23.75111616 487.55556791 25.40721905 487.54396594 C27.64807344 487.5289985 29.88817106 487.53265704 32.12904358 487.54084778 C33.38360383 487.5380824 34.63816408 487.53531702 35.93074131 487.53246784 C40.14153098 487.97256617 42.72735682 488.92169273 46.46264648 490.90161133 C48.98809124 494.88110003 49.61306195 496.9155544 48.90014648 501.58911133 C47.39359654 505.06072642 46.43544104 506.6100678 43.46264648 508.90161133 C40.87792343 509.29911321 38.71591653 509.45128658 36.13276672 509.42300415 C35.39249259 509.43065524 34.65221845 509.43830634 33.88951176 509.44618928 C31.40749802 509.46683653 28.92641079 509.45886853 26.44433594 509.45092773 C24.66525923 509.45962181 22.88619001 509.46998806 21.10713196 509.48190308 C16.27212381 509.50871539 11.43742803 509.50983644 6.60236001 509.50477648 C2.5643236 509.50263813 -1.47364946 509.51240155 -5.51167232 509.52198732 C-15.04233484 509.54419115 -24.57283974 509.54504644 -34.10351562 509.53295898 C-43.92727978 509.52089091 -53.75047019 509.5454684 -63.57413644 509.58809912 C-72.01254158 509.62336854 -80.45076445 509.63532759 -88.88924056 509.62882364 C-93.92711428 509.62520179 -98.96457924 509.63042999 -104.00238609 509.65825272 C-108.74439043 509.68346014 -113.48550407 509.67947536 -118.22749519 509.65343094 C-119.96367065 509.64871021 -121.69990924 509.65413037 -123.43601227 509.67067719 C-139.23780479 509.81036869 -139.23780479 509.81036869 -145.945508 504.54193687 C-150.70519458 499.63729291 -152.65804282 494.12313982 -152.66878128 487.37404346 C-152.67262243 486.46594671 -152.67646357 485.55784996 -152.68042111 484.62223512 C-152.67955463 483.62837901 -152.67868815 482.63452289 -152.67779541 481.61054993 C-152.68076653 480.55175871 -152.68373765 479.49296749 -152.68679881 478.40209168 C-152.69549343 474.84243469 -152.69699471 471.28281131 -152.69848633 467.72314453 C-152.70311398 465.17561267 -152.70813857 462.6280815 -152.71353149 460.08055115 C-152.72666304 453.15065239 -152.73313871 446.22076472 -152.73754215 439.29085565 C-152.74030591 434.96231161 -152.74454354 430.63376981 -152.74904633 426.30522728 C-152.76123872 414.31682761 -152.77153774 402.32842973 -152.77492142 390.34002399 C-152.77525077 389.18926242 -152.77525077 389.18926242 -152.77558677 388.01525314 C-152.77580505 387.24625819 -152.77602332 386.47726325 -152.77624822 385.68496543 C-152.77669168 384.12672826 -152.77713824 382.56849108 -152.77758789 381.01025391 C-152.77780932 380.23731687 -152.77803075 379.46437982 -152.77825889 378.66802045 C-152.7822054 366.14866617 -152.79965505 353.62937016 -152.82294741 341.11003838 C-152.84667748 328.25145486 -152.85912404 315.39290055 -152.86028934 302.53429478 C-152.86120522 295.31678449 -152.86693569 288.09935009 -152.88510895 280.88186073 C-152.90214673 274.09145297 -152.90375017 267.30121364 -152.89496994 260.51078224 C-152.89419899 258.01992914 -152.89854987 255.52906834 -152.90842819 253.03823471 C-152.92113404 249.6345153 -152.91527775 246.23130692 -152.90484619 242.82759094 C-152.9129026 241.84488844 -152.920959 240.86218593 -152.92925954 239.84970456 C-152.87957895 232.90529802 -152.12226474 226.140862 -147.67016602 220.56176758 C-147.00758789 220.03454102 -146.34500977 219.50731445 -145.66235352 218.96411133 C-145.00493164 218.41883789 -144.34750977 217.87356445 -143.67016602 217.31176758 C-139.03617145 214.24789937 -135.1535955 213.64817025 -129.63407898 213.62313843 C-128.95193716 213.61734603 -128.26979535 213.61155362 -127.56698257 213.60558569 C-125.2884218 213.5886229 -123.01006405 213.58571245 -120.73144531 213.58276367 C-119.09525559 213.57346292 -117.45907061 213.56329402 -115.82289124 213.55232239 C-111.38532236 213.52502493 -106.94778523 213.50987372 -102.51015449 213.49689436 C-97.87097518 213.48126273 -93.23186068 213.4544726 -88.59272766 213.42886353 C-79.80975866 213.38207633 -71.02677747 213.34533191 -62.24374753 213.31219065 C-52.24378179 213.27396887 -42.24388115 213.22455884 -32.24397027 213.1742065 C-11.67514609 213.07088751 8.89371931 212.98162697 29.46264648 212.90161133 C29.01199829 212.5682074 28.5613501 212.23480347 28.0970459 211.89129639 C26.01869542 210.35093691 23.94379242 208.80599558 21.86889648 207.26098633 C21.16023437 206.73682129 20.45157227 206.21265625 19.72143555 205.67260742 C13.2195738 200.82236803 7.30510792 195.53353361 1.46264648 189.90161133 C0.74850586 189.2390332 0.03436523 188.57645508 -0.70141602 187.89379883 C-23.27215051 166.40214327 -37.32509001 135.75565291 -44.53735352 105.90161133 C-44.85961914 104.62157227 -45.18188477 103.3415332 -45.51391602 102.02270508 C-50.26236575 80.65335268 -49.79728964 54.10745907 -44.53735352 32.90161133 C-44.32272461 32.01924805 -44.1080957 31.13688477 -43.88696289 30.2277832 C-43.17663331 27.3805944 -42.43047775 24.54623114 -41.66235352 21.71411133 C-41.43016113 20.85180908 -41.19796875 19.98950684 -40.95874023 19.10107422 C-38.26174749 9.84297102 -34.07046816 2.91542033 -25.74438477 -2.19995117 C-17.50156828 -5.55543399 -7.93235335 -3.1566628 0 0 Z M-17.53735352 17.90161133 C-20.3159576 23.75130414 -21.78757373 29.58780788 -23.16235352 35.90161133 C-23.37891602 36.86067383 -23.59547852 37.81973633 -23.81860352 38.80786133 C-26.05436109 48.85496945 -26.77838471 58.43160306 -26.78735352 68.71411133 C-26.78802826 69.40724426 -26.788703 70.1003772 -26.78939819 70.81451416 C-26.7724847 81.75896459 -26.18894497 92.24826848 -23.53735352 102.90161133 C-23.37106445 103.59287109 -23.20477539 104.28413086 -23.03344727 104.99633789 C-17.52263544 127.27430497 -6.82300895 148.74921214 8.46264648 165.90161133 C9.1806543 166.73950195 9.89866211 167.57739258 10.63842773 168.44067383 C24.23974986 184.04716423 40.7227863 196.13457218 59.46264648 204.90161133 C60.12264648 204.90161133 60.78264648 204.90161133 61.46264648 204.90161133 C59.26354182 197.41495354 55.99875467 190.64510042 52.45578003 183.71896362 C50.74807333 180.37906231 49.06165461 177.02841867 47.37280273 173.67895508 C47.03491226 173.0099971 46.69702179 172.34103912 46.34889221 171.65180969 C43.00697762 165.02436633 39.79110612 158.33982824 36.61938477 151.62939453 C34.34806796 146.82879152 32.04859269 142.04524067 29.68745422 137.28825378 C28.38458474 134.66234441 27.09024171 132.0322654 25.79592896 129.40213013 C25.16509717 128.12634361 24.53016802 126.85257358 23.89083862 125.58102417 C17.52847012 112.92005606 17.52847012 112.92005606 17.46264648 105.90161133 C18.73912081 102.63951028 19.73581991 101.34578312 22.71264648 99.52661133 C26.33298984 98.70380602 28.86939257 98.98696488 32.46264648 99.90161133 C35.46250946 102.46861412 37.21854493 104.95378827 38.87280273 108.51489258 C39.30036865 109.42295654 39.72793457 110.33102051 40.16845703 111.26660156 C40.61616455 112.23927979 41.06387207 113.21195801 41.52514648 114.21411133 C42.49103304 116.27412875 43.45718726 118.33402069 44.42358398 120.39379883 C44.91955078 121.45824219 45.41551758 122.52268555 45.92651367 123.61938477 C48.46495494 129.04322526 51.05991868 134.43986495 53.65014648 139.83911133 C54.58140069 141.78559933 55.51241502 143.73220213 56.44311523 145.67895508 C56.83394287 146.49614014 57.22477051 147.3133252 57.62744141 148.15527344 C58.04086792 149.01971069 58.04086792 149.01971069 58.46264648 149.90161133 C58.79264648 149.90161133 59.12264648 149.90161133 59.46264648 149.90161133 C59.59727295 148.83970581 59.59727295 148.83970581 59.73461914 147.75634766 C64.20202248 113.31617285 64.20202248 113.31617285 70.70483398 99.20629883 C72.12670414 94.88205455 70.82581154 91.66685198 68.93139648 87.67504883 C61.4925645 74.83420791 52.76389696 63.57082619 42.46264648 52.90161133 C41.65259155 52.05651001 41.65259155 52.05651001 40.82617188 51.19433594 C26.13012973 36.14000441 6.53070432 24.24703836 -13.53735352 17.90161133 C-14.85735352 17.90161133 -16.17735352 17.90161133 -17.53735352 17.90161133 Z M175.94311523 19.42114258 C174.6689978 19.95747314 174.6689978 19.95747314 173.36914062 20.50463867 C172.47187256 20.90376465 171.57460449 21.30289062 170.65014648 21.71411133 C169.7174292 22.1235498 168.78471191 22.53298828 167.82373047 22.95483398 C130.80480239 39.64771932 103.25662055 70.35428605 88.83764648 108.07348633 C79.25609868 134.30677741 76.38026947 164.67669418 83.46264648 191.90161133 C84.10525306 193.24670575 84.76730354 194.58300585 85.46264648 195.90161133 C91.06326686 185.49004589 96.43782127 175.00664221 101.49316406 164.31958008 C106.88661657 152.9458467 112.42990685 141.64556202 117.96264648 130.33911133 C118.45744507 129.32745911 118.95224365 128.31580688 119.46203613 127.27349854 C120.88887654 124.35634869 122.31623013 121.43945078 123.74389648 118.52270508 C124.17474548 117.64230057 124.60559448 116.76189606 125.04949951 115.85481262 C125.45460754 115.02777328 125.85971558 114.20073395 126.27709961 113.34863281 C126.65294189 112.57985809 127.02878418 111.81108337 127.41601562 111.01901245 C128.34274138 109.14418701 129.29808789 107.28356859 130.25756836 105.42529297 C131.60628065 103.06691811 131.60628065 103.06691811 131.46264648 100.90161133 C136.20590729 98.93489343 139.46900878 98.60696452 144.46264648 99.90161133 C147.66094245 102.0899191 148.34361504 103.3817605 149.21166992 107.17285156 C149.49066098 111.31782285 148.88830991 113.23032529 147.10327148 116.93676758 C146.57008301 118.06445557 146.03689453 119.19214355 145.48754883 120.35400391 C144.89638764 121.55760545 144.3047419 122.7609691 143.71264648 123.96411133 C143.11053856 125.21956387 142.50980568 126.47567674 141.91040039 127.73242188 C137.44283605 137.05789632 132.81297885 146.30537177 128.15014648 155.53442383 C123.89193422 163.99170651 119.84853592 172.55271995 115.79125977 181.10766602 C114.45874336 183.90981923 113.11622337 186.70698585 111.77124023 189.50317383 C110.93912585 191.24011317 110.10709069 192.97709047 109.27514648 194.71411133 C108.69482666 195.9152356 108.69482666 195.9152356 108.1027832 197.140625 C106.16104237 200.85440338 106.16104237 200.85440338 105.46264648 204.90161133 C136.82842343 195.24339003 162.322029 166.00320109 177.48266602 138.01879883 C188.47216033 116.83966062 193.68785247 94.05993826 193.77514648 70.27661133 C193.77776489 69.59375061 193.7803833 68.91088989 193.78308105 68.20733643 C193.79004312 51.17563654 191.16513854 34.97778574 185.46264648 18.90161133 C181.67154618 17.88444614 179.5510887 17.89188151 175.94311523 19.42114258 Z " fill="#000000" transform="translate(172.537353515625,3.098388671875)"/>
<path d="M0 0 C2.12063079 -0.00433765 4.2391174 -0.04055738 6.359375 -0.07861328 C17.51712511 -0.17271945 25.05255202 1.81285474 33.296875 9.43310547 C38.92104604 15.74439243 40.37838498 22.9243033 40.30859375 31.15966797 C39.69851 38.02937812 36.92263758 44.47140539 32.0234375 49.37060547 C29.75821625 51.14745333 27.42418021 52.78310739 25.0234375 54.37060547 C24.0334375 55.03060547 23.0434375 55.69060547 22.0234375 56.37060547 C22.46212158 56.79881592 22.90080566 57.22702637 23.3527832 57.66821289 C25.35249759 59.62615088 27.34424069 61.59201358 29.3359375 63.55810547 C30.02623047 64.23164063 30.71652344 64.90517578 31.42773438 65.59912109 C39.75269163 73.84364397 39.75269163 73.84364397 40.3984375 79.87060547 C39.99679248 83.61929237 39.3638997 85.44502771 37.0234375 88.37060547 C33.59578498 90.94134486 30.18372454 90.80097999 26.0234375 90.37060547 C20.6343345 87.79320838 17.23669825 83.43807193 13.34765625 78.98779297 C10.06247253 75.28851046 6.56365839 71.82400895 3.0234375 68.37060547 C2.99765625 69.46759766 2.971875 70.56458984 2.9453125 71.69482422 C2.8890106 73.14928995 2.83166373 74.6037155 2.7734375 76.05810547 C2.75216797 77.13995117 2.75216797 77.13995117 2.73046875 78.24365234 C2.50634749 83.15190787 1.66597462 85.78969022 -1.9765625 89.37060547 C-5.18516779 90.97490811 -8.4956082 90.85165865 -11.9765625 90.37060547 C-16.05770561 87.97515191 -17.57252406 85.81138547 -18.9765625 81.37060547 C-19.23725891 78.08303833 -19.23725891 78.08303833 -19.2512207 74.3046875 C-19.25633163 73.61294434 -19.26144257 72.92120117 -19.26670837 72.20849609 C-19.28055829 69.93171428 -19.27965094 67.65523679 -19.27734375 65.37841797 C-19.28123358 63.78807463 -19.28556884 62.19773233 -19.29032898 60.60739136 C-19.29778156 57.27696361 -19.29750718 53.94664187 -19.29223633 50.61621094 C-19.28644684 46.36042702 -19.30336452 42.10507904 -19.326581 37.84936714 C-19.3413555 34.56527188 -19.34218494 31.28128066 -19.33907127 27.99715805 C-19.33958275 26.42876193 -19.34478771 24.86035972 -19.35488319 23.291996 C-19.3673012 21.09281847 -19.36042451 18.89447791 -19.34887695 16.6953125 C-19.34950638 15.44686554 -19.3501358 14.19841858 -19.3507843 12.91213989 C-18.90646721 8.70724247 -17.93967245 6.10661067 -15.9765625 2.37060547 C-11.16812541 -0.83501926 -5.62472365 -0.00128771 0 0 Z M2.0234375 21.37060547 C2.0234375 26.32060547 2.0234375 31.27060547 2.0234375 36.37060547 C10.09626994 36.9523179 10.09626994 36.9523179 17.0234375 33.37060547 C19.32604509 30.5546236 19.32604509 30.5546236 18.8984375 27.37060547 C17.86347464 23.82216137 17.18612101 23.16349796 14.0234375 21.37060547 C10.975693 21.00902668 10.975693 21.00902668 7.7734375 21.18310547 C5.8759375 21.24498047 3.9784375 21.30685547 2.0234375 21.37060547 Z " fill="#000000" transform="translate(160.9765625,374.62939453125)"/>
<path d="M0 0 C2.87029869 1.79393668 4.49131638 2.98263276 6 6 C6.08527628 8.03232634 6.10716135 10.06747006 6.09765625 12.1015625 C6.09515869 13.19291504 6.09266113 14.28426758 6.09008789 15.40869141 C6.08098389 16.80007324 6.07187988 18.19145508 6.0625 19.625 C6.041875 24.03875 6.02125 28.4525 6 33 C14.91 33 23.82 33 33 33 C32.84232425 24.71308581 32.84232425 24.71308581 32.63964844 16.42724609 C32.53678474 5.71117166 32.53678474 5.71117166 37 1 C40.45739557 -0.72869779 44.21975568 -0.48966895 48 0 C50.87029869 1.79393668 52.49131638 2.98263276 54 6 C54.11357815 8.44491532 54.16779504 10.86203025 54.17700195 13.30786133 C54.18357315 14.06090042 54.19014435 14.81393951 54.19691467 15.58979797 C54.21665982 18.08721003 54.22831299 20.58456193 54.23828125 23.08203125 C54.24235678 23.93449621 54.2464323 24.78696117 54.25063133 25.66525841 C54.27149737 30.17730849 54.2857967 34.68932811 54.29516602 39.20141602 C54.306231 43.86221139 54.34063014 48.52252941 54.38033772 53.18315601 C54.40648207 56.76654448 54.4148559 60.34981884 54.41844749 63.9332943 C54.4233192 65.65129508 54.43494986 67.36929056 54.45348549 69.08719826 C54.47783111 71.49316862 54.47692079 73.89789927 54.4699707 76.30395508 C54.48278076 77.01219421 54.49559082 77.72043335 54.50878906 78.45013428 C54.47169704 81.97721189 54.05755122 83.90880838 52.15812683 86.91850281 C49.37474179 89.60305687 47.50243718 89.94312032 43.6875 90.375 C38.77452721 89.87537565 37.41116915 88.49238747 34 85 C32.88088288 81.64264863 32.88634414 79.11794614 32.90234375 75.58203125 C32.90556641 74.32841797 32.90878906 73.07480469 32.91210938 71.78320312 C32.92467773 69.81770508 32.92467773 69.81770508 32.9375 67.8125 C32.94251683 66.47721519 32.94707941 65.14192859 32.95117188 63.80664062 C32.96297296 60.5377412 32.98090864 57.26886498 33 54 C24.09 54 15.18 54 6 54 C6.05220703 57.05314453 6.05220703 57.05314453 6.10546875 60.16796875 C6.12633709 62.1504608 6.14709593 64.13295564 6.16479492 66.11547852 C6.17983432 67.48794517 6.20027133 68.86036414 6.22631836 70.23266602 C6.26291221 72.21088656 6.27816698 74.18946514 6.29296875 76.16796875 C6.3086792 77.35672607 6.32438965 78.5454834 6.34057617 79.77026367 C5.96676003 83.3152198 5.10049492 85.15496875 3 88 C-0.42176689 90.56632517 -3.84640421 90.36435051 -8 90 C-10.74987513 88.77783328 -12.42587846 87.8473591 -14.11856079 85.34909058 C-15.32633447 82.13029824 -15.29500224 79.05563069 -15.29052734 75.66455078 C-15.29724457 74.93233307 -15.30396179 74.20011536 -15.31088257 73.44570923 C-15.32985626 71.02884099 -15.33378643 68.61225055 -15.3359375 66.1953125 C-15.34236594 64.51146328 -15.34909434 62.82761519 -15.35610962 61.14376831 C-15.36808084 57.61486217 -15.37179061 54.08605392 -15.37060547 50.55712891 C-15.3704023 46.04217573 -15.3977023 41.52785218 -15.43214989 37.01304817 C-15.45442216 33.53511693 -15.45844291 30.05733713 -15.45738602 26.57934189 C-15.45974157 24.915209 -15.46856255 23.25107191 -15.48405075 21.58700943 C-15.50371791 19.25564134 -15.49787098 16.92562971 -15.48583984 14.59423828 C-15.49707886 13.91143799 -15.50831787 13.2286377 -15.51989746 12.52514648 C-15.45556555 7.60232655 -14.07149806 4.79474575 -11 1 C-7.54260443 -0.72869779 -3.78024432 -0.48966895 0 0 Z " fill="#000000" transform="translate(377,375)"/>
<path d="M0 0 C6.187542 4.82716043 10.48480541 12.39378211 11.79541016 20.0690918 C12.5063132 26.02090039 12.43596077 31.96800505 12.43530273 37.95288086 C12.43748403 40.171258 12.45566646 42.38913272 12.47460938 44.60742188 C12.52795572 57.65293641 11.62171452 67.49722529 2.875 77.625 C-3.60445962 83.17882253 -10.85788959 86.38277991 -19.57421875 86.12890625 C-29.59817781 84.95914442 -36.43826229 80.59543023 -43.13671875 73.265625 C-47.60113376 66.6500754 -48.20846695 60.31733143 -48.18359375 52.56640625 C-48.1888356 51.60024887 -48.19407745 50.63409149 -48.19947815 49.63865662 C-48.20587012 47.60571244 -48.2045982 45.57273115 -48.19604492 43.53979492 C-48.18753355 40.44968068 -48.21633888 37.3614166 -48.24804688 34.27148438 C-48.24965926 32.28645888 -48.24908064 30.30143015 -48.24609375 28.31640625 C-48.25732773 27.40363419 -48.26856171 26.49086212 -48.28013611 25.5504303 C-48.1824631 16.44597469 -44.97546877 9.33252668 -38.81640625 2.66796875 C-27.75643418 -6.92849095 -12.31313364 -7.83809608 0 0 Z M-24.75 18.875 C-27.26498325 22.64747487 -27.09093701 25.71001084 -27.12109375 30.0859375 C-27.13012222 30.89108795 -27.1391507 31.6962384 -27.14845276 32.52578735 C-27.16295481 34.22874229 -27.17184189 35.93175295 -27.17553711 37.63476562 C-27.18742696 40.23403342 -27.23660245 42.83092128 -27.28710938 45.4296875 C-27.2965748 47.08592594 -27.30380926 48.74217893 -27.30859375 50.3984375 C-27.32812607 51.17254974 -27.34765839 51.94666199 -27.36778259 52.74423218 C-27.33402557 56.80273759 -26.94164269 58.63593346 -24.37133789 61.84228516 C-21.60098146 63.99055634 -20.24488883 64.875 -16.75 64.875 C-13.91286436 63.48942213 -11.97998296 62.10498296 -9.75 59.875 C-9.52540961 56.98099245 -9.42182752 54.18555622 -9.4140625 51.2890625 C-9.4074057 50.43573334 -9.4007489 49.58240417 -9.39389038 48.70321655 C-9.38375522 46.89591633 -9.37907363 45.08857861 -9.37939453 43.28125 C-9.37502781 40.51759964 -9.33873688 37.75555439 -9.30078125 34.9921875 C-9.29491194 33.23698463 -9.29094331 31.48177417 -9.2890625 29.7265625 C-9.27469147 28.90040436 -9.26032043 28.07424622 -9.24551392 27.22305298 C-9.28028007 22.46298628 -9.28028007 22.46298628 -11.59521484 18.38037109 C-16.45066403 14.98826825 -20.16281891 15.30719248 -24.75 18.875 Z " fill="#000000" transform="translate(286.75,266.125)"/>
<path d="M0 0 C6.76033911 4.53367394 12.29543424 10.89997683 14 19 C14.10215931 20.47306419 14.15788671 21.94979087 14.17700195 23.42626953 C14.19625481 24.72880173 14.19625481 24.72880173 14.21589661 26.05764771 C14.22328354 26.98995209 14.23067047 27.92225647 14.23828125 28.8828125 C14.246353 29.852258 14.25442474 30.82170349 14.26274109 31.82052612 C14.27656254 33.87317121 14.28729335 35.9258391 14.29516602 37.97851562 C14.30666321 40.06549878 14.32707894 42.15245306 14.35668945 44.23925781 C14.39962704 47.26647783 14.41557321 50.29282471 14.42578125 53.3203125 C14.44328934 54.2404715 14.46079742 55.16063049 14.47883606 56.1086731 C14.45370141 63.73152245 12.60185867 70.31171212 8.17578125 76.5859375 C0.89200686 83.57958251 -7.25265032 87.44095148 -17.4375 87.2734375 C-26.20441378 86.33794365 -33.09213403 82.41066308 -39 76 C-44.48895026 68.92214308 -45.31507643 62.55789207 -45.3359375 53.88671875 C-45.3425943 52.91773148 -45.3492511 51.9487442 -45.35610962 50.95039368 C-45.36620752 48.90550628 -45.37092753 46.86058613 -45.37060547 44.81567383 C-45.37497129 41.70793568 -45.41130155 38.60162721 -45.44921875 35.49414062 C-45.45508919 33.50000481 -45.45905706 31.50586231 -45.4609375 29.51171875 C-45.47530853 28.59267258 -45.48967957 27.6736264 -45.50448608 26.72673035 C-45.44065839 17.58928966 -42.24764168 10.48151939 -36.06640625 3.79296875 C-25.3665462 -5.49103081 -12.35671146 -6.18748181 0 0 Z M-22 20 C-24.51839838 23.77759757 -24.32341066 26.83113414 -24.3359375 31.2109375 C-24.3425943 32.01608795 -24.3492511 32.8212384 -24.35610962 33.65078735 C-24.36623125 35.35375689 -24.37092679 37.05676604 -24.37060547 38.75976562 C-24.37497268 41.35874226 -24.41127829 43.95601203 -24.44921875 46.5546875 C-24.45508833 48.21093171 -24.45905678 49.86718396 -24.4609375 51.5234375 C-24.47530853 52.29754974 -24.48967957 53.07166199 -24.50448608 53.86923218 C-24.47318876 57.58582743 -24.13466616 59.7834437 -22.15478516 62.96728516 C-19.38933672 65.57606872 -17.78467605 66 -14 66 C-10.47093933 64.39588152 -9.17227092 63.25840638 -7 60 C-6.77992115 57.22922579 -6.67199181 54.56141651 -6.6640625 51.7890625 C-6.6574057 50.98391205 -6.6507489 50.1787616 -6.64389038 49.34921265 C-6.63376875 47.64624311 -6.62907321 45.94323396 -6.62939453 44.24023438 C-6.62502732 41.64125774 -6.58872171 39.04398797 -6.55078125 36.4453125 C-6.54491167 34.78906829 -6.54094322 33.13281604 -6.5390625 31.4765625 C-6.52469147 30.70245026 -6.51032043 29.92833801 -6.49551392 29.13076782 C-6.52681124 25.41417257 -6.86533384 23.2165563 -8.84521484 20.03271484 C-13.32247021 15.80909959 -17.3484069 16.38209425 -22 20 Z " fill="#000000" transform="translate(210,265)"/>
<path d="M0 0 C3.45744711 2.24452715 4.77504218 4.09076911 5.9375 8.0625 C6.14231209 10.88260487 5.79956722 13.36924424 4.9375 16.0625 C2.43988423 18.92741221 0.42130562 19.88477549 -3.125 21.1875 C-7.41884135 21.05118758 -9.15649324 20.14157482 -12.875 18.125 C-18.34866972 15.16124165 -22.8677804 13.84001264 -29.0625 15.0625 C-30.0525 15.7225 -31.0425 16.3825 -32.0625 17.0625 C-31.9149194 19.01127124 -31.9149194 19.01127124 -31.0625 21.0625 C-29.0367917 22.35029253 -29.0367917 22.35029253 -26.46875 23.2109375 C-25.52 23.57703125 -24.57125 23.943125 -23.59375 24.3203125 C-22.09328125 24.87332031 -22.09328125 24.87332031 -20.5625 25.4375 C-8.39861114 29.96660755 1.40784828 34.7973033 7.3125 46.875 C9.13126672 56.15071026 8.16552276 63.10492945 2.9375 71.0625 C-2.13084298 77.22670092 -9.19150438 81.66603304 -17.0625 83.0625 C-30.03486615 83.9494994 -42.05941217 82.01452564 -52.14453125 73.25390625 C-57.9488957 67.56775696 -57.9488957 67.56775696 -58.3125 62.75 C-58.047156 58.83617606 -57.42930088 57.13057521 -55.0625 54.0625 C-51.35686023 51.59207349 -48.361834 51.39098498 -44.0625 52.0625 C-40.9375 53.8125 -40.9375 53.8125 -38.0625 56.0625 C-31.95846711 60.33532302 -27.61919306 61.90213256 -20.0625 61.0625 C-17.04954798 59.78039276 -15.57436936 58.99590884 -14 56.125 C-13.85519415 53.89727 -13.85519415 53.89727 -15.71337891 52.08374023 C-18.31180778 49.84798959 -20.50459213 48.84822406 -23.7109375 47.66015625 C-24.79890625 47.24443359 -25.886875 46.82871094 -27.0078125 46.40039062 C-29.28613147 45.55315697 -31.56477531 44.70679637 -33.84375 43.86132812 C-43.06057988 40.33692568 -48.89699997 37.11234958 -53.14453125 27.875 C-55.28597067 21.31399412 -55.00992299 14.66667269 -52.5 8.25 C-48.85035994 1.23048323 -43.62425405 -3.63394628 -36.12890625 -6.27734375 C-23.10774277 -9.08062608 -11.31191685 -6.93773664 0 0 Z " fill="#000000" transform="translate(336.0625,381.9375)"/>
<path d="M0 0 C0.8037355 -0.00524185 1.60747101 -0.0104837 2.43556213 -0.0158844 C4.1325668 -0.0222972 5.82961596 -0.02097717 7.52661133 -0.01245117 C10.11685745 -0.00394581 12.70489379 -0.03270233 15.29492188 -0.06445312 C16.94661392 -0.06606547 18.59830986 -0.06548697 20.25 -0.0625 C21.02097519 -0.07373398 21.79195038 -0.08496796 22.58628845 -0.09654236 C26.26654432 -0.04908493 28.47335691 0.29803191 31.62524414 2.25756836 C34.44389727 5.2260967 35.14253297 7.38565333 35.69140625 11.43359375 C34.63494571 15.162278 33.70043069 17.54194562 30.77734375 20.125 C26.04139069 22.13328389 21.46180568 21.74792233 16.37890625 21.62109375 C14.83879883 21.60079102 14.83879883 21.60079102 13.26757812 21.58007812 C10.74196136 21.54483696 8.21661569 21.49103322 5.69140625 21.43359375 C5.69140625 25.72359375 5.69140625 30.01359375 5.69140625 34.43359375 C6.99335938 34.39878906 8.2953125 34.36398437 9.63671875 34.328125 C11.36326829 34.29997474 13.08983186 34.27267591 14.81640625 34.24609375 C15.67234375 34.22095703 16.52828125 34.19582031 17.41015625 34.16992188 C22.59750336 34.11006787 26.23704415 34.45708076 30.69140625 37.43359375 C33.37046355 41.4521797 33.38751319 44.71001096 32.69140625 49.43359375 C30.89746957 52.30389244 29.70877349 53.92491013 26.69140625 55.43359375 C25.09693161 55.51759904 23.4990008 55.54086842 21.90234375 55.53125 C20.96132812 55.52802734 20.0203125 55.52480469 19.05078125 55.52148438 C18.0659375 55.51310547 17.08109375 55.50472656 16.06640625 55.49609375 C14.57753906 55.48932617 14.57753906 55.48932617 13.05859375 55.48242188 C10.60283903 55.47061536 8.14711519 55.45267957 5.69140625 55.43359375 C5.69140625 60.05359375 5.69140625 64.67359375 5.69140625 69.43359375 C7.29371094 69.3871875 8.89601562 69.34078125 10.546875 69.29296875 C12.65753343 69.25544593 14.76821203 69.21904632 16.87890625 69.18359375 C17.93400391 69.15007812 18.98910156 69.1165625 20.07617188 69.08203125 C27.90832906 68.98320277 27.90832906 68.98320277 31.8359375 71.2421875 C34.39788927 74.26798738 35.15857545 76.50396659 35.69140625 80.43359375 C34.60249358 84.27681493 33.73002485 86.61451084 30.56616211 89.10961914 C26.93126934 90.78367634 23.6830516 90.88317061 19.7578125 90.8671875 C19.00225571 90.87242935 18.24669891 90.8776712 17.46824646 90.8830719 C15.87557195 90.88947446 14.28285004 90.888178 12.69018555 90.87963867 C10.26459822 90.87113125 7.84137046 90.89990609 5.41601562 90.93164062 C3.86328195 90.93325304 2.31054414 90.93267434 0.7578125 90.9296875 C0.03888321 90.94092148 -0.68004608 90.95215546 -1.42076111 90.96372986 C-6.50515192 90.89401198 -9.51700774 89.82465265 -13.30859375 86.43359375 C-15.19591303 81.98533597 -15.56525524 78.13407831 -15.58325195 73.33007812 C-15.58836288 72.64633621 -15.59347382 71.9625943 -15.59873962 71.25813293 C-15.61255681 69.0144457 -15.61168517 66.77106828 -15.609375 64.52734375 C-15.61326566 62.95845426 -15.6176011 61.38956581 -15.62236023 59.82067871 C-15.62980504 56.53910907 -15.62954338 53.25764706 -15.62426758 49.97607422 C-15.61846872 45.77963175 -15.63542216 41.58363004 -15.65861225 37.38726044 C-15.67337136 34.14953047 -15.67421846 30.91190621 -15.67110252 27.67414856 C-15.67161443 26.12725449 -15.67682754 24.58035431 -15.68691444 23.03349304 C-15.69930726 20.8677432 -15.6924716 18.70284645 -15.6809082 16.53710938 C-15.68153763 15.3072229 -15.68216705 14.07733643 -15.68281555 12.81018066 C-15.18250589 8.2959085 -13.68437501 4.95756394 -10.64038086 1.58569336 C-7.17786395 -0.12508219 -3.78039843 -0.01435691 0 0 Z " fill="#000000" transform="translate(231.30859375,374.56640625)"/>
<path d="M0 0 C1.69154647 -0.01653294 3.38302383 -0.04378815 5.07421875 -0.08203125 C7.51892155 -0.13700599 9.96198756 -0.15870539 12.40722656 -0.17333984 C13.1574408 -0.19600922 13.90765503 -0.21867859 14.68060303 -0.24203491 C18.65665179 -0.22616033 21.20837301 0.28643037 24.26538086 2.75390625 C27.30799782 5.87307994 27.75415591 7.26158324 27.96582031 11.42431641 C27.70326875 14.43450055 26.7502394 16.07231184 24.79785156 18.35009766 C20.07611101 22.23968988 15.28954646 21.69757193 9.48535156 21.53759766 C8.08833008 21.51729492 8.08833008 21.51729492 6.66308594 21.49658203 C4.37442444 21.46137185 2.08606227 21.40756899 -0.20214844 21.35009766 C-0.20214844 25.64009766 -0.20214844 29.93009766 -0.20214844 34.35009766 C1.09980469 34.29208984 2.40175781 34.23408203 3.74316406 34.17431641 C5.46969058 34.12739992 7.19625604 34.08190179 8.92285156 34.03759766 C9.77878906 33.99570312 10.63472656 33.95380859 11.51660156 33.91064453 C15.87020513 33.82692139 18.86514571 33.90315173 22.34863281 36.68994141 C25.21125115 39.79910104 25.88200347 41.14250247 25.79785156 45.35009766 C24.62010485 49.43757153 23.82257863 51.6731851 20.23144531 54.04541016 C15.95232401 55.67137889 12.44605681 55.68709342 7.92285156 55.53759766 C6.74722656 55.51729492 6.74722656 55.51729492 5.54785156 55.49658203 C3.63088374 55.46151555 1.71427405 55.40771838 -0.20214844 55.35009766 C-0.18643799 56.14182373 -0.17072754 56.9335498 -0.15454102 57.74926758 C-0.09208145 61.34530461 -0.05312209 64.94122736 -0.01464844 68.53759766 C0.01048828 69.78347656 0.035625 71.02935547 0.06152344 72.31298828 C0.07119141 73.51503906 0.08085938 74.71708984 0.09082031 75.95556641 C0.10653076 77.06053467 0.12224121 78.16550293 0.13842773 79.30395508 C-0.24690469 82.75040145 -1.16262588 84.57388522 -3.20214844 87.35009766 C-5.96098175 89.51242647 -7.71756947 90.28952529 -11.20214844 90.72509766 C-14.62637286 90.2970696 -16.45438756 89.41091831 -19.20214844 87.35009766 C-21.60984713 83.73854962 -21.49799783 81.10190415 -21.49267578 76.92871094 C-21.49939301 76.17552582 -21.50611023 75.4223407 -21.51303101 74.64633179 C-21.53204212 72.15429095 -21.53593681 69.66251901 -21.53808594 67.17041016 C-21.54451196 65.4378956 -21.55124018 63.70538214 -21.55825806 61.97286987 C-21.57023878 58.33963505 -21.57393809 54.70649537 -21.57275391 51.07324219 C-21.57255073 46.42028607 -21.59984771 41.76794083 -21.63429832 37.11512947 C-21.6565498 33.53601283 -21.66059198 29.95704357 -21.65953445 26.37786484 C-21.66189326 24.66266653 -21.67073252 22.94746433 -21.68619919 21.23233414 C-21.70582336 18.8312139 -21.70003601 16.43141553 -21.68798828 14.03027344 C-21.69922729 13.32360535 -21.71046631 12.61693726 -21.7220459 11.88885498 C-21.66125666 7.11467401 -20.57625515 4.7046392 -17.20214844 1.35009766 C-12.44907754 -1.02643779 -5.28289267 0.03783721 0 0 Z " fill="#000000" transform="translate(102.2021484375,374.64990234375)"/>
<path d="M0 0 C1.6406543 -0.05607422 1.6406543 -0.05607422 3.31445312 -0.11328125 C11.37594818 -0.20170716 11.37594818 -0.20170716 15.38671875 2.6484375 C18.313979 7.08060161 18.31577312 10.711786 18.33276367 15.97607422 C18.33612228 16.63026337 18.3394809 17.28445251 18.34294128 17.95846558 C18.35241996 20.11555901 18.35439286 22.27257455 18.35546875 24.4296875 C18.35868356 25.93417391 18.3620478 27.43866 18.36555481 28.94314575 C18.37153842 32.09540532 18.37339551 35.2476375 18.37280273 38.39990234 C18.37270117 42.43039538 18.38635036 46.460712 18.40357494 50.49116325 C18.41471781 53.59848836 18.41672124 56.70577113 18.41619301 59.81311417 C18.41736979 61.29860161 18.42177459 62.78409026 18.42952538 64.26955795 C18.43937132 66.35154162 18.43642931 68.43314637 18.43041992 70.51513672 C18.43184494 71.69776093 18.43326996 72.88038513 18.43473816 74.09884644 C18.1024416 78.50210904 17.04468309 82.01779344 14.6875 85.75 C10.71427399 88.3325969 6.77660416 88.23638525 2.1875 87.375 C-0.91608378 85.15815444 -2.44525933 83.76203422 -3.42649841 80.0559845 C-3.83489504 77.21945463 -3.9324942 74.53243173 -3.92602539 71.66674805 C-3.92594986 70.54596359 -3.92587433 69.42517914 -3.92579651 68.27043152 C-3.92063522 67.0713063 -3.91547394 65.87218109 -3.91015625 64.63671875 C-3.9087413 63.40081497 -3.90732635 62.16491119 -3.90586853 60.89155579 C-3.90122618 57.61841655 -3.89225311 54.34532713 -3.88116455 51.07220459 C-3.87090404 47.72717752 -3.86644631 44.38214827 -3.86132812 41.03710938 C-3.85030907 34.4830535 -3.83357836 27.92903082 -3.8125 21.375 C-5.07191406 21.26027344 -6.33132812 21.14554687 -7.62890625 21.02734375 C-11.18899417 20.70303687 -11.79774523 20.38724332 -14.75 17.9375 C-17.76733095 14.18869488 -18.27586416 12.19398725 -17.8125 7.375 C-13.13962612 -0.88041053 -8.80644687 0.112969 0 0 Z " fill="#000000" transform="translate(130.8125,262.625)"/>
<path d="M0 0 C2.8100346 1.79363911 4.50940468 3.01880935 6 6 C6.48325143 12.44086294 5.26622576 16.86709737 2.703125 22.73046875 C2.35805908 23.55152603 2.01299316 24.37258331 1.6574707 25.21852112 C0.53510167 27.88078185 -0.60691818 30.53407493 -1.75 33.1875 C-2.53026863 35.02386339 -3.30923094 36.86078236 -4.08691406 38.69824219 C-5.26175423 41.47289783 -6.43786461 44.24694875 -7.61981201 47.01858521 C-10.01766695 52.64587716 -12.35374382 58.29316004 -14.625 63.97265625 C-15.16428244 65.31294939 -15.70366684 66.6532015 -16.24316406 67.9934082 C-17.22517345 70.4344778 -18.19354187 72.87958309 -19.15527344 75.32885742 C-23.2656012 85.47405841 -23.2656012 85.47405841 -28 89 C-30.6905596 90.12495459 -33.10367591 90.29473357 -36 90 C-39.1669666 88.4165167 -41.19832084 86.97595724 -43.4375 84.25 C-45.12946159 77.48215366 -41.99236317 70.82570669 -39.3515625 64.7265625 C-38.98289062 63.85277451 -38.61421875 62.97898651 -38.234375 62.07872009 C-37.0409656 59.25657498 -35.83346173 56.4407284 -34.625 53.625 C-33.80045715 51.68646188 -32.97672997 49.74757661 -32.15380859 47.80834961 C-30.52481812 43.9721042 -28.89077683 40.1380645 -27.25390625 36.30517578 C-25.30253443 31.72598799 -23.39015321 27.13207793 -21.5 22.52734375 C-21.00419434 21.32706543 -20.50838867 20.12678711 -19.99755859 18.89013672 C-19.1083615 16.73436361 -18.22546358 14.57597709 -17.35009766 12.41455078 C-16.95870605 11.47466309 -16.56731445 10.53477539 -16.1640625 9.56640625 C-15.83873535 8.77177979 -15.5134082 7.97715332 -15.17822266 7.15844727 C-11.69357946 0.77474844 -7.05901884 -1.01422685 0 0 Z " fill="#000000" transform="translate(379,262)"/>
<path d="M0 0 C3.883836 3.14012273 5.8023937 5.28741203 6.375 10.25 C5.88957648 15.10423522 4.65318534 16.80346282 1 20 C-2.94110696 21.42229465 -5.92928404 21.42828638 -9.8125 19.875 C-13.25025497 16.92835288 -14.80938005 14.52495962 -15.375 10 C-14.86233287 5.89866294 -13.60543977 3.24867537 -10.3125 0.6875 C-6.83097941 -0.34754666 -3.5543693 -0.71228432 0 0 Z " fill="#000000" transform="translate(341,262)"/>
<path d="M0 0 C3.67552256 1.99756661 4.77375004 3.50036467 6.5 7.3125 C7.12392742 11.91396471 6.36380554 14.03490684 4 18 C1.29013532 20.27042717 -0.45183064 20.91835776 -3.9375 21.4375 C-7.96291785 20.86244031 -9.9585188 19.69585834 -13 17 C-15.01536061 12.7274355 -15.23834919 10.7944973 -13.875 6.25 C-10.43877563 0.29387776 -6.88583797 -1.20467941 0 0 Z " fill="#000000" transform="translate(388,331)"/>
<path d="M0 0 C2.60432061 1.98750784 3.74529693 3.3086631 4.875 6.375 C5.08114804 10.70410884 3.78751087 13.75310778 1.5 17.375 C-2.47665913 19.95982843 -6.40722341 19.85464289 -11 19 C-14.41421647 16.63095184 -15.64346607 15.02503506 -17 11.125 C-17 6.9569923 -16.15607248 4.57099504 -14 1 C-8.80675031 -2.29571615 -5.60979182 -2.43443796 0 0 Z " fill="#000000" transform="translate(262,493)"/>
</svg>
