<?xml version="1.0" encoding="UTF-8"?>
<svg version="1.1" xmlns="http://www.w3.org/2000/svg" width="512" height="512">
<path d="M0 0 C9.38525748 4.79496375 18.46149542 6.4345945 28.92138672 5.21704102 C46.23378317 3.26384757 62.86872882 6.8538785 77.09326172 17.13110352 C82.91025088 21.77015237 87.61892803 26.648497 92.11669922 32.55297852 C99.15235775 41.36981642 107.982015 45.66406616 118.53466797 48.99853516 C129.96865066 52.61403772 138.61843232 57.29658606 147.28076172 65.68579102 C147.76077637 66.14679199 148.24079102 66.60779297 148.73535156 67.08276367 C156.10240539 74.58771036 159.81281997 83.48389827 162.90576172 93.37329102 C167.86560335 108.26461664 174.98544292 117.27307851 187.55419922 126.84204102 C198.9129824 136.39959321 204.73065342 151.56019471 206.96826172 165.87329102 C207.46430739 172.49412281 207.10601264 178.91603304 206.34326172 185.49829102 C205.21365658 196.63063153 208.60104203 206.39844516 214.29055786 215.82505798 C222.4187121 229.79994532 222.24594258 243.78039488 222.04546499 259.52895856 C222.00718649 263.20237583 222.01721025 266.87572902 222.02029419 270.54930115 C222.01838203 276.70273942 221.98167164 282.85516714 221.921875 289.00830078 C221.85328718 296.0962039 221.83423241 303.1828924 221.84264362 310.27109486 C221.85019293 317.13821712 221.82915299 324.00493753 221.79309464 330.87196159 C221.77796301 333.77484683 221.77148202 336.67755361 221.77199936 339.58047676 C221.77064887 343.63383605 221.72687758 347.6856963 221.67871094 351.73876953 C221.68254791 352.92596588 221.68638489 354.11316223 221.69033813 355.33633423 C221.54248243 363.620111 219.91860162 370.49754249 214.24252129 376.78487492 C205.71462298 384.98577541 195.48065878 384.25295203 184.46826172 384.06079102 C182.96306675 384.04571962 181.45785721 384.03203555 179.95263672 384.01977539 C176.29087231 383.98695789 172.62966151 383.9353109 168.96826172 383.87329102 C167.59720215 387.21611476 166.37929775 390.56836898 165.26904297 394.00610352 C158.82895077 413.55964585 150.29476956 430.08534817 131.57373047 440.29907227 C126.92596248 442.32837942 122.17449594 443.84384923 117.34326172 445.37329102 C102.57630918 450.05741798 94.14378231 457.79358697 84.55419922 469.92797852 C75.39103609 480.36457217 60.7290223 487.50697436 46.96826172 488.87329102 C39.88396944 489.17075301 32.94490387 489.03161584 25.90576172 488.18579102 C14.92462732 487.23662381 5.94340985 490.65267297 -3.71923828 495.37329102 C-20.45730011 503.53807967 -38.51979131 506.35352117 -56.65283203 500.28735352 C-61.36500889 498.31532112 -65.93865567 496.1041169 -70.44140625 493.69165039 C-78.7194995 489.27269396 -87.36454351 487.23730145 -96.71923828 488.31079102 C-116.20013585 490.53203357 -133.86398226 486.94175117 -149.59423828 474.81079102 C-153.75014497 471.2767754 -157.21279397 467.44882309 -160.65673828 463.24829102 C-169.02825946 453.06762034 -176.52306434 448.90791185 -189.03173828 444.87329102 C-200.40495736 441.07351288 -209.91490665 435.89199283 -218.03173828 426.87329102 C-218.57185547 426.32543945 -219.11197266 425.77758789 -219.66845703 425.21313477 C-227.71929995 416.7082313 -231.46177862 406.30594394 -234.85595703 395.31860352 C-235.99306907 391.98660078 -237.44567695 389.00884742 -239.03173828 385.87329102 C-239.03173828 385.21329102 -239.03173828 384.55329102 -239.03173828 383.87329102 C-239.95398193 383.89423828 -240.87622559 383.91518555 -241.82641602 383.93676758 C-245.2874576 384.00542783 -248.74776304 384.0553233 -252.20922852 384.09301758 C-253.69990546 384.1129856 -255.19050558 384.14017022 -256.6809082 384.17504883 C-267.76695463 384.4277646 -277.00679477 383.70155641 -285.41993332 375.68422699 C-291.54412662 368.80341807 -291.62611734 360.59643482 -291.61279297 351.82055664 C-291.62622742 350.53957092 -291.63966187 349.25858521 -291.65350342 347.93878174 C-291.6886196 344.44647132 -291.6982058 340.95455376 -291.70076656 337.46208382 C-291.70362442 335.27100252 -291.71219165 333.08001871 -291.72275543 330.88896179 C-291.75970015 323.21831005 -291.77610519 315.54793502 -291.77294922 307.87719727 C-291.77055306 300.77126 -291.81263662 293.6665442 -291.87592387 286.56091547 C-291.92857929 280.42627949 -291.94966998 274.29203806 -291.94712758 268.1571784 C-291.94611713 264.50830381 -291.95697884 260.86051407 -291.99983978 257.21186829 C-292.31090705 228.76581992 -292.31090705 228.76581992 -284.0923233 215.61979675 C-278.40268978 206.2504606 -275.20564195 196.19713046 -276.46923828 185.18579102 C-278.69988909 165.62238059 -275.06760342 147.94520107 -262.84423828 132.18579102 C-258.8572145 127.50624877 -254.42660487 123.77685911 -249.60986328 119.98266602 C-240.72625036 112.71425545 -236.31385886 104.09023211 -232.90649414 93.30688477 C-227.50605659 76.22806696 -217.6514527 62.18447603 -201.63720703 53.44750977 C-196.98943904 51.41820261 -192.2379725 49.9027328 -187.40673828 48.37329102 C-172.63978575 43.68916405 -164.20725887 35.95299506 -154.61767578 23.81860352 C-145.45451265 13.38200986 -130.79249887 6.23960767 -117.03173828 4.87329102 C-109.947446 4.57582902 -103.00838043 4.71496619 -95.96923828 5.56079102 C-84.98810389 6.50995822 -76.00688641 3.09390907 -66.34423828 -1.62670898 C-43.68939848 -12.67768853 -22.24223475 -11.65031258 0 0 Z M-63.84130859 17.36230469 C-75.74022673 23.34921246 -88.51711712 24.75283276 -101.67626953 23.14282227 C-114.49204753 21.67634021 -126.63446637 24.82663665 -137.15283203 32.40063477 C-140.90563879 35.5096852 -143.92436403 38.90102823 -146.90673828 42.74829102 C-156.55718177 55.1023607 -167.51376279 61.20003015 -182.21923828 65.87329102 C-195.78392544 70.20128538 -206.33069675 78.03854852 -213.03173828 90.87329102 C-214.49864712 94.59038265 -215.69950296 98.37775835 -216.90673828 102.18579102 C-222.04767118 117.56858716 -229.08768632 127.8949701 -242.15673828 137.81079102 C-251.81413119 145.39874259 -257.0365473 155.84459152 -259.03173828 167.87329102 C-259.39017141 173.67147405 -258.90745021 179.40972124 -258.40673828 185.18579102 C-257.88322417 192.36956805 -258.64883993 198.83566446 -260.03173828 205.87329102 C-260.36173828 207.85329102 -260.69173828 209.83329102 -261.03173828 211.87329102 C-253.11173828 211.87329102 -245.19173828 211.87329102 -237.03173828 211.87329102 C-236.18611328 208.32579102 -235.34048828 204.77829102 -234.46923828 201.12329102 C-226.02834418 166.95256013 -211.0903064 136.12851929 -187.10595703 110.13500977 C-185.23052242 108.09004434 -183.44141295 105.99709627 -181.65673828 103.87329102 C-163.73032414 83.45596284 -138.82147221 68.41180483 -114.03173828 57.87329102 C-113.40444824 57.60323242 -112.7771582 57.33317383 -112.13085938 57.05493164 C-99.86948513 51.86459292 -87.01953854 48.6809383 -74.03173828 45.87329102 C-73.1911084 45.6910498 -72.35047852 45.50880859 -71.484375 45.32104492 C-47.45373569 40.3953275 -19.99575683 40.92367846 3.96826172 45.87329102 C4.68320801 46.01250977 5.3981543 46.15172852 6.13476562 46.29516602 C58.02771373 56.55266022 103.93355999 87.55163276 133.96826172 130.87329102 C136.79859192 135.16186593 139.41096568 139.56598674 141.93457031 144.04077148 C142.61503846 145.24709976 143.30270128 146.44940241 143.99804688 147.6472168 C155.48748907 167.46664195 162.10467947 189.60320388 166.96826172 211.87329102 C174.88826172 211.87329102 182.80826172 211.87329102 190.96826172 211.87329102 C190.30826172 208.57329102 189.64826172 205.27329102 188.96826172 201.87329102 C188.07803931 194.56572623 187.8048324 187.53488668 188.69873047 180.22875977 C190.16521253 167.41298176 187.01491608 155.27056293 179.44091797 144.75219727 C176.33186754 140.99939051 172.9405245 137.98066527 169.09326172 134.99829102 C156.73919204 125.34784753 150.64152258 114.39126651 145.96826172 99.68579102 C141.61571083 86.04413943 133.78524921 75.70271986 120.96826172 68.87329102 C117.72822272 67.53540786 114.42859843 66.44744698 111.09326172 65.37329102 C95.42936629 60.04756657 84.59596325 53.25108875 74.34326172 40.12329102 C66.55374393 30.30233423 56.29468742 24.91460992 43.96826172 22.87329102 C38.35000312 22.53157225 32.81150527 22.97098186 27.21826172 23.49829102 C10.27655628 24.74508319 -4.34424398 19.07723538 -19.07080078 11.32641602 C-34.11836097 3.94159756 -50.20414789 10.37997537 -63.84130859 17.36230469 Z M-172.03173828 118.87329102 C-175.21956792 122.41158987 -178.14020395 126.09163884 -181.03173828 129.87329102 C-181.80517578 130.80786133 -182.57861328 131.74243164 -183.37548828 132.70532227 C-201.79659341 155.41108318 -213.33150675 183.37213337 -219.03173828 211.87329102 C-189.99173828 211.87329102 -160.95173828 211.87329102 -131.03173828 211.87329102 C-133.01173828 209.56329102 -134.99173828 207.25329102 -137.03173828 204.87329102 C-149.0211096 188.1798404 -154.10131376 169.65395043 -154.34423828 149.24829102 C-154.38774414 148.01852539 -154.38774414 148.01852539 -154.43212891 146.76391602 C-154.48924786 141.29807111 -153.71164518 138.18309188 -150.03173828 133.87329102 C-140.36898712 127.43145691 -123.70977234 131.49695329 -112.84423828 133.62329102 C-86.99606337 139.01232434 -65.96711237 151.71112302 -51.03173828 173.87329102 C-48.79083013 171.04609876 -47.13868208 168.22197705 -45.53173828 164.99829102 C-32.5807829 140.90499248 -10.17403143 124.56764945 15.65576172 116.56079102 C29.29468934 112.59190904 43.21431039 110.6878004 57.40576172 110.43579102 C58.18056885 110.41339355 58.95537598 110.39099609 59.75366211 110.36791992 C64.92135192 110.38960653 67.9281725 111.39250722 71.96826172 114.87329102 C74.52521428 118.46338651 75.3561267 120.95636294 75.40185547 125.34594727 C75.41321533 126.40072266 75.4245752 127.45549805 75.4362793 128.54223633 C75.4262085 129.66210938 75.4161377 130.78198242 75.40576172 131.93579102 C75.3954895 133.6716748 75.3954895 133.6716748 75.38500977 135.44262695 C74.91559581 160.96327469 66.89439505 186.17046213 48.96826172 204.87329102 C46.84163921 206.66375855 44.70536281 208.29622088 42.40185547 209.84985352 C41.69222656 210.35645508 41.69222656 210.35645508 40.96826172 210.87329102 C40.96826172 211.20329102 40.96826172 211.53329102 40.96826172 211.87329102 C76.60826172 211.87329102 112.24826172 211.87329102 148.96826172 211.87329102 C145.85650433 198.17096781 145.85650433 198.17096781 141.71826172 184.87329102 C141.42016602 184.0413623 141.12207031 183.20943359 140.81494141 182.35229492 C132.81885532 160.54365514 121.20841274 141.37072717 105.96826172 123.87329102 C105.46681641 123.29208496 104.96537109 122.71087891 104.44873047 122.11206055 C75.27218358 88.53786131 33.75643845 67.40393111 -10.03173828 60.87329102 C-10.66370117 60.77902832 -11.29566406 60.68476562 -11.94677734 60.58764648 C-71.76195954 52.75704067 -130.33066802 76.3596999 -172.03173828 118.87329102 Z M-20.15673828 158.99829102 C-33.68542485 174.43817299 -39.54651365 191.99544058 -43.03173828 211.87329102 C-38.62503122 211.94888108 -34.21869269 212.00255189 -29.81152344 212.03808594 C-28.32024545 212.05293803 -26.82900917 212.07322524 -25.33789062 212.09960938 C-3.44087659 212.47663426 19.56410657 208.09956089 36.25732422 192.70922852 C53.51762747 174.18789854 58.25486283 152.32991916 57.96826172 127.87329102 C28.34388552 127.34058495 0.49762487 137.58247668 -20.15673828 158.99829102 Z M-137.03173828 148.87329102 C-136.50914078 167.29485277 -132.63648202 183.81938038 -119.57080078 197.58422852 C-108.90497608 207.19987971 -94.2379366 212.04445699 -79.97705078 211.97094727 C-78.86845703 211.96772461 -77.75986328 211.96450195 -76.61767578 211.96118164 C-74.90451172 211.94861328 -74.90451172 211.94861328 -73.15673828 211.93579102 C-71.99142578 211.9312793 -70.82611328 211.92676758 -69.62548828 211.92211914 C-66.76085183 211.91037883 -63.89632195 211.89395671 -61.03173828 211.87329102 C-57.99392766 200.80160107 -60.51778165 193.41149904 -66.02148438 183.57299805 C-76.48197743 165.97368614 -93.83111343 156.12528918 -113.03173828 150.87329102 C-121.05288131 148.83329325 -128.7807049 148.63717241 -137.03173828 148.87329102 Z M-273.03173828 234.87329102 C-273.34453393 237.16586298 -273.34453393 237.16586298 -273.30589294 239.86360168 C-273.31586807 240.91930862 -273.3258432 241.97501556 -273.33612061 243.06271362 C-273.33678528 244.2258609 -273.33744995 245.38900818 -273.33813477 246.58740234 C-273.34645828 247.80861282 -273.3547818 249.0298233 -273.36335754 250.28804016 C-273.38336863 253.64359234 -273.39410645 256.99889598 -273.39918399 260.3544867 C-273.40282412 262.45076409 -273.40906244 264.54701749 -273.41618538 266.64328575 C-273.44069487 273.95637437 -273.45373446 281.26939194 -273.45727539 288.58251953 C-273.46090923 295.39910469 -273.49078927 302.21523917 -273.53267998 309.0316866 C-273.56737941 314.8831524 -273.58282378 320.73446887 -273.58352143 326.58603686 C-273.58431455 330.08124119 -273.59306768 333.57598694 -273.62151909 337.07108498 C-273.6525561 340.97123245 -273.64364167 344.87073337 -273.63110352 348.77099609 C-273.64593781 349.92807068 -273.66077209 351.08514526 -273.67605591 352.27728271 C-273.66629227 353.34144913 -273.65652863 354.40561554 -273.64646912 355.50202942 C-273.64848044 356.42399014 -273.65049177 357.34595087 -273.65256405 358.2958498 C-272.74526489 362.0626236 -271.02907869 363.45986366 -268.03173828 365.87329102 C-265.20239709 366.3654246 -262.9759924 366.54757914 -260.152771 366.50249672 C-259.36171762 366.50976392 -258.57066424 366.51703113 -257.75563955 366.52451855 C-255.09426257 366.54282456 -252.43431664 366.52538789 -249.77294922 366.50820923 C-247.85003292 366.51396821 -245.92712211 366.52190783 -244.00422287 366.53184545 C-238.71189022 366.55277253 -233.42000674 366.5423769 -228.1276722 366.52691436 C-222.42342161 366.51562877 -216.71924974 366.53304968 -211.01501465 366.54681396 C-199.83715605 366.56908074 -188.65946505 366.56422983 -177.48159981 366.54975076 C-168.39946234 366.53847205 -159.31737194 366.53692169 -150.23522949 366.54236984 C-148.94403222 366.54313601 -147.65283494 366.54390217 -146.32251048 366.54469156 C-143.69970479 366.54629014 -141.07689912 366.5479112 -138.45409346 366.54955451 C-114.54532138 366.56341514 -90.63664469 366.54902601 -66.72788781 366.52284153 C-44.89552852 366.49911293 -23.06331504 366.50123604 -1.23095703 366.52514648 C23.28999299 366.55191157 47.81084935 366.56244871 72.33181381 366.54708517 C74.94512684 366.54549237 77.55843988 366.54392052 80.17175293 366.54236984 C82.10059826 366.54121278 82.10059826 366.54121278 84.06841016 366.54003233 C93.14267255 366.53570998 102.2168833 366.54301342 111.2911377 366.55476761 C122.34530564 366.5687713 133.399296 366.56503748 144.45344353 366.53836389 C150.09658969 366.52519711 155.73943946 366.52012215 161.38258362 366.53660965 C166.54430019 366.55146281 171.70544448 366.54339758 176.86710882 366.51672189 C178.7384972 366.51111723 180.60993351 366.51402154 182.48129129 366.52610083 C185.01798761 366.54122403 187.55270299 366.52579973 190.08929443 366.50249672 C191.18888544 366.52005547 191.18888544 366.52005547 192.3106904 366.53796893 C196.20930592 366.46598297 197.84443962 365.97301771 200.9215464 363.49470657 C203.24482747 360.51906795 203.59407703 359.23768478 203.59645081 355.51548767 C203.60910477 354.45421158 203.62175873 353.39293549 203.63479614 352.29949951 C203.62310394 351.14556702 203.61141174 349.99163452 203.59936523 348.80273438 C203.60652054 347.57947952 203.61367584 346.35622467 203.62104797 345.09590149 C203.63504594 341.74837014 203.62664242 338.40238676 203.60695767 335.05498195 C203.5905521 331.54946792 203.59938653 328.04400368 203.60447693 324.53846741 C203.6089952 318.65311962 203.59314349 312.76808994 203.56518555 306.8828125 C203.5331196 300.08036444 203.53315577 293.27848957 203.55040032 286.47600073 C203.56626692 279.92827417 203.55953208 273.38075761 203.5424633 266.83304024 C203.53559405 264.04799364 203.53662378 261.26311543 203.54400826 258.47807121 C203.55309568 254.58997637 203.52913216 250.70247014 203.50170898 246.81445312 C203.50823486 245.6584964 203.51476074 244.50253967 203.52148438 243.31155396 C203.50875992 242.25309769 203.49603546 241.19464142 203.48292542 240.10411072 C203.48011849 239.18512465 203.47731157 238.26613859 203.47441959 237.31930447 C202.80743339 234.09608637 201.5006285 232.91246932 198.96826172 230.87329102 C195.38338193 229.67833108 192.12846109 229.73284396 188.39785957 229.74186325 C187.61586738 229.73981062 186.83387519 229.73775798 186.02818626 229.73564315 C183.38605433 229.72995135 180.74397417 229.73143307 178.10183716 229.73284912 C176.19715307 229.73026674 174.29246953 229.72725394 172.38778675 229.72384572 C167.13668805 229.71575766 161.88560302 229.71398515 156.63449883 229.71324825 C150.97795763 229.71140086 145.32142357 229.70385517 139.66488647 229.69711304 C127.289091 229.68351692 114.91329875 229.67750316 102.53749704 229.67310238 C94.81507581 229.67034242 87.09265583 229.66610555 79.37023544 229.66159821 C58.00314705 229.64940445 36.6360602 229.63906957 15.26896858 229.63572311 C13.88697542 229.63550148 12.50498227 229.6352797 11.12298911 229.63505776 C9.73763116 229.63483712 8.3522732 229.63461664 6.96691525 229.63439631 C4.18757892 229.63395376 1.40824258 229.63350664 -1.37109375 229.63305664 C-2.06020862 229.63294725 -2.74932349 229.63283786 -3.45932063 229.63272515 C-25.81217348 229.62909319 -48.16499393 229.61316785 -70.51783437 229.58986628 C-94.14192024 229.56528445 -117.76598103 229.5515578 -141.39008152 229.5503552 C-154.27149486 229.54943709 -167.15286575 229.54365064 -180.03426743 229.52553558 C-191.00059874 229.51016835 -201.9668745 229.50499415 -212.93321453 229.51327369 C-218.53173333 229.51719204 -224.13014016 229.51619299 -229.72864532 229.50221634 C-234.84959005 229.48954841 -239.97033785 229.49061197 -245.09128202 229.50280705 C-246.94793307 229.50477643 -248.80459773 229.5016289 -250.6612296 229.49296269 C-253.17761305 229.48195675 -255.69329081 229.48929615 -258.20965385 229.50135422 C-258.93686884 229.49375902 -259.66408382 229.48616383 -260.41333562 229.47833848 C-265.98128672 229.53626137 -269.13723589 230.97878862 -273.03173828 234.87329102 Z M-219.03173828 383.87329102 C-214.2235033 400.63391155 -208.9373419 414.15945327 -193.37353516 423.65063477 C-189.02890049 425.91897613 -184.37833436 427.27124871 -179.71923828 428.74829102 C-164.33644214 433.88922391 -154.01005919 440.92923905 -144.09423828 453.99829102 C-136.50766631 463.65392807 -126.05973191 468.88139398 -114.03173828 470.87329102 C-108.41347968 471.21500979 -102.87498183 470.77560017 -97.28173828 470.24829102 C-80.34003284 469.00149884 -65.71923258 474.66934665 -50.99267578 482.42016602 C-42.8318143 486.4252326 -31.69362636 486.0437436 -22.89501953 484.22485352 C-17.07894337 482.19053091 -11.69585711 479.18684754 -6.22216797 476.38427734 C5.67675017 470.39736957 18.45364056 468.99374927 31.61279297 470.60375977 C44.42857097 472.07024183 56.5709898 468.91994538 67.08935547 461.34594727 C70.84216222 458.23689683 73.86088747 454.8455538 76.84326172 450.99829102 C86.49370521 438.64422133 97.45028623 432.54655188 112.15576172 427.87329102 C125.7464174 423.53701105 136.22266598 415.70347495 142.96826172 402.87329102 C144.26776627 399.5918273 145.29478037 396.26048815 146.28076172 392.87329102 C146.67618164 391.56811523 146.67618164 391.56811523 147.07958984 390.23657227 C147.71970035 388.1183884 148.34898095 385.99763892 148.96826172 383.87329102 C144.57614498 383.62389153 140.18788749 383.44368266 135.79077148 383.32397461 C134.29948085 383.27403401 132.80867126 383.20604486 131.3190918 383.11889648 C122.23985843 382.46889933 122.23985843 382.46889933 114.12255859 385.95263672 C111.8610205 388.48694805 109.90685271 391.08745208 107.96826172 393.87329102 C76.85730512 427.28533947 26.96287418 448.1876873 -18.03173828 450.87329102 C-79.42103823 452.96110832 -132.45096834 435.22089372 -178.20751953 393.64672852 C-181.03173828 390.87329102 -181.03173828 390.87329102 -182.14501953 388.99511719 C-183.61220048 386.67119896 -184.70892585 385.37759858 -187.03173828 383.87329102 C-192.5127638 382.9947857 -197.87731811 383.21324655 -203.40673828 383.43579102 C-204.92098942 383.4709346 -206.43531866 383.50286831 -207.94970703 383.53149414 C-211.64535001 383.60831778 -215.33804602 383.7289318 -219.03173828 383.87329102 Z M-162.03173828 383.87329102 C-134.58502512 411.32000418 -98.12471678 427.17351272 -60.03173828 432.87329102 C-59.34966309 432.97641602 -58.66758789 433.07954102 -57.96484375 433.18579102 C-50.60493519 434.15079893 -43.19336229 434.11692206 -35.78173828 434.12329102 C-35.07409332 434.12396576 -34.36644836 434.1246405 -33.63735962 434.12533569 C12.81922154 434.05526544 57.68799483 416.37943226 91.96826172 384.87329102 C91.96826172 384.54329102 91.96826172 384.21329102 91.96826172 383.87329102 C8.14826172 383.87329102 -75.67173828 383.87329102 -162.03173828 383.87329102 Z " fill="#000000" transform="translate(291.03173828125,9.126708984375)"/>
<path d="M0 0 C4.98229963 2.16667127 6.7575589 5.58291142 8.98828125 10.29296875 C9.33634323 10.99899734 9.68440521 11.70502594 10.04301453 12.43244934 C11.14621597 14.67787901 12.22949861 16.93226925 13.3125 19.1875 C14.05925046 20.71612879 14.8072837 22.24413163 15.55664062 23.77148438 C17.38603077 27.50723633 19.1976233 31.25114514 21 35 C21.01458252 34.17798096 21.02916504 33.35596191 21.04418945 32.5090332 C21.11876333 28.77638677 21.21539512 25.04462541 21.3125 21.3125 C21.33505859 20.01892578 21.35761719 18.72535156 21.38085938 17.39257812 C21.41630859 16.14541016 21.45175781 14.89824219 21.48828125 13.61328125 C21.51446533 12.46641846 21.54064941 11.31955566 21.56762695 10.13793945 C22.04501898 6.67327559 22.9152507 4.78509717 25 2 C28.23627302 -0.15751534 28.83578838 -0.2536352 32.5 0.125 C33.2734375 0.18945312 34.046875 0.25390625 34.84375 0.3203125 C37.80767796 1.25459414 38.45502009 2.30700442 40 5 C40.29476157 7.56784928 40.42057277 9.89255762 40.40405273 12.45898438 C40.41091599 13.20416824 40.41777924 13.94935211 40.42485046 14.71711731 C40.44312683 17.1761896 40.43928037 19.63462448 40.43359375 22.09375 C40.4381548 23.80481168 40.44346015 25.51587153 40.44947815 27.22692871 C40.4584106 30.81135505 40.45598424 34.39555861 40.44604492 37.97998047 C40.43454833 42.57363097 40.45477617 47.16651356 40.48396206 51.76006317 C40.50230556 55.29283533 40.50203545 58.82542277 40.49632454 62.35823059 C40.49617113 64.05191628 40.50223149 65.74561434 40.51461601 67.43925476 C40.52949184 69.80699916 40.51887608 72.17331596 40.50170898 74.54101562 C40.51137695 75.24035721 40.52104492 75.93969879 40.53100586 76.66023254 C40.47973512 80.03656725 40.20886433 81.73230759 38.1051178 84.42858887 C35.72317193 86.20664436 34.51025883 86.5943474 31.5625 86.625 C30.82128906 86.65851563 30.08007812 86.69203125 29.31640625 86.7265625 C24.7476609 85.29353276 22.3075043 80.54319968 20.05541992 76.56494141 C19.43887324 75.33122699 18.83080961 74.09324359 18.23046875 72.8515625 C17.90460281 72.19417084 17.57873688 71.53677917 17.24299622 70.85946655 C16.21683722 68.78498471 15.20202245 66.70519325 14.1875 64.625 C13.48837683 63.20666298 12.78851368 61.78869046 12.08789062 60.37109375 C10.3833514 56.91821337 8.68895408 53.46052868 7 50 C6.99383667 51.36934692 6.99383667 51.36934692 6.98754883 52.76635742 C6.96050598 56.16834778 6.91136138 59.56855061 6.84741211 62.9699707 C6.82428007 64.43925947 6.8098476 65.90871292 6.80444336 67.37817383 C6.79511721 69.49664345 6.75405873 71.61254065 6.70703125 73.73046875 C6.6913208 75.00301514 6.67561035 76.27556152 6.65942383 77.58666992 C5.83900704 81.83333673 4.32279672 83.32194375 1 86 C-2.02648335 86.90738141 -3.7496807 86.46433133 -7 86 C-9.43119623 84.12984906 -10.64069173 82.71861655 -12 80 C-12.107566 77.71894407 -12.14892585 75.43468114 -12.16113281 73.15112305 C-12.16609772 72.44685181 -12.17106262 71.74258057 -12.17617798 71.01696777 C-12.19080911 68.68187489 -12.19760368 66.34684998 -12.203125 64.01171875 C-12.20887634 62.3898773 -12.21463408 60.76803587 -12.22039795 59.14619446 C-12.2309111 55.7423979 -12.23675148 52.33862497 -12.24023438 48.93481445 C-12.24571517 44.5767682 -12.26973282 40.219035 -12.29820633 35.86108685 C-12.3168475 32.5093139 -12.32203913 29.15761607 -12.32357025 25.80579567 C-12.32659475 24.19945377 -12.33461646 22.59311314 -12.34775543 20.98682213 C-12.36484483 18.73666095 -12.36292884 16.48726061 -12.35644531 14.23706055 C-12.36009094 12.95735886 -12.36373657 11.67765717 -12.36749268 10.35917664 C-11.96979696 6.72392013 -11.20925319 4.88250333 -9 2 C-5.4913604 -0.33909307 -4.12910567 -0.41291057 0 0 Z " fill="#000000" transform="translate(327,264)"/>
<path d="M0 0 C1.15113281 -0.02449219 2.30226562 -0.04898437 3.48828125 -0.07421875 C13.21967718 -0.10750745 20.65412516 1.97677886 27.87109375 8.69140625 C33.15521473 14.60687675 34.67817361 21.55745196 34.375 29.375 C33.43484157 34.22353133 32.11922511 38.25866234 29.375 42.375 C29.65273287 45.05975108 30.63955862 46.89309397 31.875 49.3125 C34.8811129 55.44998051 34.58991667 61.67408449 34.625 68.375 C34.645625 69.35984375 34.66625 70.3446875 34.6875 71.359375 C34.7359832 80.32876779 34.7359832 80.32876779 31.375 84.375 C28.83331563 86.91668437 27.01970839 86.68799113 23.54296875 86.8359375 C20.06774965 86.09706209 18.70751691 85.09560291 16.375 82.375 C15.67827788 78.75543421 15.72123686 75.17688748 15.75 71.5 C16.19555633 62.23417921 16.19555633 62.23417921 12.375 54.375 C8.0736599 53.26179987 3.79734164 52.74089988 -0.625 52.375 C-0.60405273 53.2628418 -0.58310547 54.15068359 -0.56152344 55.06542969 C-0.49324323 58.36794455 -0.4431513 61.6697067 -0.40527344 64.97265625 C-0.38519018 66.40051121 -0.35791748 67.82828425 -0.32324219 69.25585938 C-0.27457331 71.31140368 -0.25200033 73.36585855 -0.234375 75.421875 C-0.21342773 76.65776367 -0.19248047 77.89365234 -0.17089844 79.16699219 C-0.70712865 82.95519917 -1.61374913 84.09813271 -4.625 86.375 C-7.68957559 87.10877162 -10.53318894 86.94334762 -13.625 86.375 C-16.9154485 84.07168605 -17.92234088 82.22891172 -18.625 78.375 C-18.72744324 76.11512705 -18.77343637 73.85249011 -18.78613281 71.59033203 C-18.79109772 70.91663574 -18.79606262 70.24293945 -18.80117798 69.54882812 C-18.81574681 67.32681241 -18.82259239 65.10486807 -18.828125 62.8828125 C-18.83388036 61.33348591 -18.83963804 59.78415933 -18.84539795 58.23483276 C-18.85589261 54.9884203 -18.86174545 51.7420325 -18.86523438 48.49560547 C-18.87071897 44.34397325 -18.8947525 40.192669 -18.92320633 36.0411396 C-18.94186559 32.84116677 -18.94704003 29.64127248 -18.94857025 26.44124985 C-18.95158938 24.91109294 -18.95959291 23.38093717 -18.97275543 21.85083389 C-18.98988708 19.7064569 -18.987919 17.56287544 -18.98144531 15.41845703 C-18.98509094 14.20030304 -18.98873657 12.98214905 -18.99249268 11.7270813 C-18.57997987 7.96434929 -17.6135866 5.58113397 -15.625 2.375 C-10.82465432 -0.82523045 -5.64450571 0.00619594 0 0 Z M-0.625 18.375 C-0.625 23.655 -0.625 28.935 -0.625 34.375 C6.72502216 34.90031799 6.72502216 34.90031799 13.5625 32.8125 C15.63190409 30.40580702 15.63190409 30.40580702 16 26.9375 C15.59213629 23.32139467 15.59213629 23.32139467 13.5625 20.4375 C8.77160024 17.33750604 5.01416424 18.03529131 -0.625 18.375 Z " fill="#000000" transform="translate(128.625,263.625)"/>
<path d="M0 0 C2.875 2.4375 2.875 2.4375 5 5 C5.721875 5.804375 6.44375 6.60875 7.1875 7.4375 C10.47084024 12.07946379 11.24988557 16.59667237 11.30639648 22.20141602 C11.32238388 23.40609024 11.33837128 24.61076447 11.35484314 25.85194397 C11.36020584 27.13959152 11.36556854 28.42723907 11.37109375 29.75390625 C11.38007087 31.10098871 11.3891929 32.44807021 11.39845276 33.79515076 C11.41488811 36.61012182 11.42263361 39.42497466 11.42553711 42.23999023 C11.43093466 45.84046317 11.46869187 49.43982151 11.51428127 53.03997898 C11.54406323 55.81874129 11.55126078 58.59723448 11.55226326 61.3761425 C11.55849145 63.34654038 11.58794382 65.31682078 11.61778259 67.28700256 C11.56755412 77.21680093 11.56755412 77.21680093 8.59619141 80.31201172 C4.55079994 82.94223897 2.75729382 82.6796134 -2 82 C-4.43119623 80.12984906 -5.64069173 78.71861655 -7 76 C-7.08342159 74.55151418 -7.10732861 73.09929131 -7.09765625 71.6484375 C-7.09443359 70.79765625 -7.09121094 69.946875 -7.08789062 69.0703125 C-7.07532227 67.73613281 -7.07532227 67.73613281 -7.0625 66.375 C-7.05798828 65.4778125 -7.05347656 64.580625 -7.04882812 63.65625 C-7.03702611 61.43747169 -7.01909039 59.21872757 -7 57 C-12.28 57 -17.56 57 -23 57 C-22.94199219 58.38574219 -22.88398438 59.77148438 -22.82421875 61.19921875 C-22.77731123 63.0286121 -22.73181213 64.85804194 -22.6875 66.6875 C-22.64560547 67.59951172 -22.60371094 68.51152344 -22.56054688 69.45117188 C-22.47656209 74.0703351 -22.47385769 76.28006345 -25.26953125 80.10546875 C-28.98828519 82.68572006 -28.98828519 82.68572006 -32 82.625 C-32.9590625 82.64433594 -32.9590625 82.64433594 -33.9375 82.6640625 C-37.28041784 81.58774426 -39.2891576 80.01221287 -41 77 C-41.76105699 72.58585948 -41.67611483 68.20785603 -41.62890625 63.73828125 C-41.63131821 62.43731003 -41.63373016 61.13633881 -41.63621521 59.79594421 C-41.6390699 57.04276235 -41.62441695 54.29039536 -41.59692383 51.53735352 C-41.5630077 48.03488062 -41.56880499 44.53387991 -41.5875864 41.03133869 C-41.60080524 37.66267867 -41.58239764 34.2944312 -41.56640625 30.92578125 C-41.57136612 29.68065262 -41.57632599 28.43552399 -41.58143616 27.15266418 C-41.45810757 17.92929337 -40.07104947 10.22724707 -33.875 3.125 C-23.96492573 -5.81308404 -11.40767268 -6.26303598 0 0 Z M-19.8125 15.8125 C-22.46504027 18.45599367 -22.46504027 18.45599367 -23.11352539 21.97119141 C-23.10828857 22.75671387 -23.10305176 23.54223633 -23.09765625 24.3515625 C-23.09443359 25.20234375 -23.09121094 26.053125 -23.08789062 26.9296875 C-23.07951172 27.81914062 -23.07113281 28.70859375 -23.0625 29.625 C-23.05798828 30.5221875 -23.05347656 31.419375 -23.04882812 32.34375 C-23.03702611 34.56252831 -23.01909039 36.78127243 -23 39 C-17.72 39 -12.44 39 -7 39 C-6.89203694 35.7491122 -6.81270705 32.50180821 -6.75 29.25 C-6.71648437 28.32960938 -6.68296875 27.40921875 -6.6484375 26.4609375 C-6.49080507 21.09365321 -6.49080507 21.09365321 -8.83203125 16.421875 C-12.90720299 13.74914975 -15.63037419 13.11735226 -19.8125 15.8125 Z " fill="#000000" transform="translate(288,268)"/>
<path d="M0 0 C1.15371094 -0.00708984 2.30742187 -0.01417969 3.49609375 -0.02148438 C10.41594457 0.03039455 15.17118493 0.51016608 20.73828125 4.91015625 C24.52114618 9.06009164 25.81216436 12.50802403 26.04296875 18.1328125 C25.80866903 21.34762265 25.08132112 23.08409081 22.875 25.4375 C19.96553057 27.1674548 18.2000358 27.44413338 14.8125 27.375 C11.10261565 26.19099436 9.9025815 24.71282397 7.875 21.4375 C7.875 20.4475 7.875 19.4575 7.875 18.4375 C2.595 18.4375 -2.685 18.4375 -8.125 18.4375 C-8.125 34.9375 -8.125 51.4375 -8.125 68.4375 C-2.845 68.4375 2.435 68.4375 7.875 68.4375 C7.875 66.1275 7.875 63.8175 7.875 61.4375 C6.946875 61.210625 6.01875 60.98375 5.0625 60.75 C1.875 59.4375 1.875 59.4375 -0.0625 57.25 C-1.47712359 53.50540815 -1.17260545 51.27871997 -0.125 47.4375 C1.5439646 45.05143552 2.8148917 43.65521202 5.73071289 43.05639648 C7.95917783 42.89804802 10.14159787 42.89199775 12.375 42.9375 C13.13425781 42.92203125 13.89351562 42.9065625 14.67578125 42.890625 C18.44808844 42.91705097 20.28744971 42.98382193 23.34375 45.34375 C26.89526948 50.19990928 26.13579656 55.22345845 26.1875 61.0625 C26.21650391 62.13113281 26.24550781 63.19976562 26.27539062 64.30078125 C26.33548631 71.81736476 25.73684019 77.502014 20.32592773 83.01611328 C14.18302384 87.71299723 7.15459969 87.10666012 -0.25 86.9375 C-1.49910156 86.94007813 -2.74820313 86.94265625 -4.03515625 86.9453125 C-10.86192809 86.87245474 -16.45246071 86.78727456 -21.76953125 81.9375 C-25.38261033 77.29729142 -26.24824936 74.32849407 -26.31787109 68.5324707 C-26.33393402 67.31723221 -26.34999695 66.10199371 -26.36654663 64.84992981 C-26.41104618 59.28708114 -26.45250562 53.72436143 -26.47509766 48.16137695 C-26.48841257 45.22909175 -26.51622107 42.29750649 -26.55712891 39.36547852 C-26.60665393 35.81521399 -26.6312428 32.26558195 -26.63832474 28.7149868 C-26.64823585 26.71644408 -26.68243293 24.7180689 -26.71713257 22.71980286 C-26.7003235 15.45956179 -26.29484555 9.87936061 -21.125 4.4375 C-14.76351599 -0.50126392 -7.76297911 -0.13535003 0 0 Z " fill="#000000" transform="translate(205.125,263.5625)"/>
<path d="M0 0 C5.74493494 3.79058324 8.55659887 8.41243461 10.90234375 14.81640625 C11.5523934 18.54502504 11.6059568 22.16281354 11.56640625 25.94140625 C11.57118988 26.9689502 11.57597351 27.99649414 11.5809021 29.05517578 C11.58428277 31.21323185 11.57520988 33.37134044 11.55419922 35.52929688 C11.52740861 38.80846743 11.55401131 42.08421554 11.5859375 45.36328125 C11.58263308 47.47266371 11.57622618 49.58204406 11.56640625 51.69140625 C11.5765274 52.65836426 11.58664856 53.62532227 11.59707642 54.62158203 C11.46650919 62.30911305 9.41888994 68.94574433 4.1625061 74.73144531 C-2.83878573 81.25018231 -9.3312497 82.3871185 -18.71484375 82.16796875 C-25.82457943 81.42908167 -30.52323429 78.25625939 -35.09765625 72.81640625 C-38.8618019 67.47409188 -41.18426488 63.21771873 -41.2746582 56.58959961 C-41.28749344 55.76451401 -41.30032867 54.93942841 -41.31355286 54.08934021 C-41.32093979 53.20392044 -41.32832672 52.31850067 -41.3359375 51.40625 C-41.34804512 50.0222274 -41.34804512 50.0222274 -41.36039734 48.61024475 C-41.3742178 46.65595363 -41.38494905 44.70163858 -41.39282227 42.74731445 C-41.4043061 40.76416875 -41.42470043 38.78105307 -41.4543457 36.7980957 C-41.8243261 12.03421204 -41.8243261 12.03421204 -33.97265625 2.87890625 C-23.91200706 -6.04482523 -11.34506972 -6.40140806 0 0 Z M-19.97265625 15.62890625 C-23.7499333 19.51727968 -23.25851931 23.02215892 -23.265625 28.18359375 C-23.2689534 29.01472687 -23.2722818 29.84585999 -23.27571106 30.70217896 C-23.28077841 32.46241705 -23.28311944 34.22266477 -23.28295898 35.98291016 C-23.28514186 38.6736643 -23.3032894 41.36400613 -23.32226562 44.0546875 C-23.32520032 45.76432151 -23.32718461 47.47395748 -23.328125 49.18359375 C-23.33531052 49.98787811 -23.34249603 50.79216248 -23.34989929 51.62081909 C-23.38541612 57.05540578 -23.38541612 57.05540578 -21.09765625 61.81640625 C-17.57941114 64.16190299 -16.23989931 64.39632028 -12.09765625 63.81640625 C-9.39172067 61.82249358 -7.42324188 60.225437 -6.64233398 56.84591675 C-6.46904023 54.45581881 -6.45695142 52.11470109 -6.50390625 49.71875 C-6.50386597 48.84746964 -6.50382568 47.97618927 -6.50378418 47.07850647 C-6.50913179 45.24196128 -6.52668218 43.40541608 -6.55566406 41.5690918 C-6.59757218 38.75954252 -6.59672632 35.95238774 -6.58984375 33.14257812 C-6.60033512 31.35545211 -6.61327294 29.56833843 -6.62890625 27.78125 C-6.62920837 26.52331886 -6.62920837 26.52331886 -6.6295166 25.23997498 C-6.69986809 21.77193607 -6.77932591 19.41952435 -8.41601562 16.31860352 C-12.11229363 13.01674542 -15.94014677 13.08667201 -19.97265625 15.62890625 Z " fill="#000000" transform="translate(83.09765625,268.18359375)"/>
<path d="M0 0 C6.09716324 5.40814479 8.43469411 12.51438719 9.45703125 20.4375 C8.85296187 24.21293361 7.63761913 25.88191212 4.95703125 28.5625 C1.81831937 30.13185594 -0.58152697 29.91451103 -4.04296875 29.5625 C-8.61989047 26.3378506 -9.92072259 22.76208745 -11.26953125 17.55078125 C-11.96497324 15.19969001 -11.96497324 15.19969001 -15.04296875 13.5625 C-18.6147299 13.64417489 -18.6147299 13.64417489 -22.04296875 14.5625 C-24.66489943 18.49539602 -24.36690431 21.89777876 -24.37890625 26.46484375 C-24.38889145 27.77600914 -24.38889145 27.77600914 -24.39907837 29.11366272 C-24.40920163 30.96206559 -24.41389549 32.81050498 -24.41357422 34.65893555 C-24.41794729 37.48612687 -24.45426877 40.31175682 -24.4921875 43.13867188 C-24.49805576 44.93489049 -24.50202509 46.73111653 -24.50390625 48.52734375 C-24.51827728 49.37223862 -24.53264832 50.21713348 -24.54745483 51.08763123 C-24.51166243 55.92870312 -24.51166243 55.92870312 -22.20556641 60.10766602 C-19.31965295 62.04909278 -17.45662345 61.92565476 -14.04296875 61.5625 C-12.55796875 61.0675 -12.55796875 61.0675 -11.04296875 60.5625 C-10.96820313 59.89863281 -10.8934375 59.23476563 -10.81640625 58.55078125 C-9.6064078 50.42481126 -9.6064078 50.42481126 -6.41796875 47.375 C-1.85375099 44.92384602 -0.01130273 45.25933043 4.95703125 46.5625 C7.60068204 48.43863927 7.90944406 49.41973843 8.95703125 52.5625 C9.71603169 60.00070435 7.07659838 66.15605283 3.20703125 72.375 C-3.87363041 79.25897661 -10.67004306 80.99262779 -20.390625 80.90234375 C-27.41062751 80.24914566 -32.72115321 77.34245546 -37.48046875 72.1875 C-42.93106629 65.58170119 -43.51002981 58.96858078 -43.51171875 50.73046875 C-43.51933228 49.69867996 -43.5269458 48.66689117 -43.53479004 47.60383606 C-43.54556016 45.42789113 -43.54845676 43.25189464 -43.54394531 41.07592773 C-43.54297475 37.77043088 -43.58459784 34.46727065 -43.62890625 31.16210938 C-43.63411541 29.03906729 -43.63680141 26.91601722 -43.63671875 24.79296875 C-43.65311401 23.81659958 -43.66950928 22.84023041 -43.68640137 21.83427429 C-43.60635708 13.76872913 -41.3050117 7.1588159 -35.83203125 1.125 C-24.51005621 -7.04971122 -11.76317594 -8.27695745 0 0 Z " fill="#000000" transform="translate(461.04296875,269.4375)"/>
<path d="M0 0 C4.36301349 0.77910955 5.78467759 2.19091578 8.5 5.625 C9.64211013 9.0513304 9.63398801 11.69781155 9.64526367 15.31201172 C9.64862228 15.98716827 9.6519809 16.66232483 9.65544128 17.35794067 C9.6649411 19.59020833 9.66689396 21.82240089 9.66796875 24.0546875 C9.67118219 25.60783926 9.67454633 27.16099072 9.67805481 28.71414185 C9.68404378 31.97073061 9.68589497 35.22729284 9.68530273 38.48388672 C9.68520117 42.652388 9.69884868 46.82071873 9.71607494 50.98917961 C9.72720599 54.19769061 9.7292216 57.40616054 9.72869301 60.61468887 C9.72987164 62.15124219 9.73428685 63.68779662 9.74202538 65.2243309 C9.75184691 67.37607432 9.74893878 69.52744959 9.74291992 71.67919922 C9.74434494 72.90259003 9.74576996 74.12598083 9.74723816 75.38644409 C9.44465427 79.34996991 8.54807358 82.23668224 6.15234375 85.41015625 C4.02262813 86.97597553 2.68951021 87.05806997 0.0625 87.0625 C-0.69933594 87.08183594 -1.46117187 87.10117187 -2.24609375 87.12109375 C-5.44796914 86.41634821 -6.49268923 85.20690096 -8.5 82.625 C-8.90013444 80.00447469 -9.0579414 77.80088605 -9.03344727 75.18188477 C-9.04206284 74.43830719 -9.05067841 73.69472961 -9.05955505 72.92861938 C-9.08223071 70.47419274 -9.07547349 68.0209065 -9.06640625 65.56640625 C-9.07164147 63.85773886 -9.07791757 62.14907437 -9.08518982 60.44041443 C-9.09559716 56.86012164 -9.09102843 53.2802262 -9.07641602 49.69995117 C-9.05923435 45.11519222 -9.08271311 40.53168721 -9.11790562 35.94706821 C-9.13988388 32.41851012 -9.13843707 28.89025182 -9.1301403 25.36164665 C-9.12932088 23.67157555 -9.13618271 21.98148242 -9.15091133 20.2914753 C-9.16836479 17.92604033 -9.15381126 15.56285488 -9.13110352 13.19750977 C-9.14279572 12.50176346 -9.15448792 11.80601715 -9.16653442 11.08918762 C-9.0926276 7.29873492 -8.55965472 5.70042573 -6.17930603 2.69078064 C-3.5 0.625 -3.5 0.625 0 0 Z " fill="#000000" transform="translate(392.5,263.375)"/>
</svg>
